<?xml version="1.0" encoding="utf-8"?>
<!-- Generator: Adobe Illustrator 23.0.3, SVG Export Plug-In . SVG Version: 6.00 Build 0)  -->
<svg version="1.1" id="Layer_1" xmlns="http://www.w3.org/2000/svg" xmlns:xlink="http://www.w3.org/1999/xlink" x="0px" y="0px"
	 viewBox="0 0 1000 1000" style="enable-background:new 0 0 1000 1000;" xml:space="preserve">
<style type="text/css">
	.st0{fill:#645A55;}
	.st1{fill:#AF6E23;}
	.st2{fill:#F5F0E6;}
	.st3{fill:#FFFFFF;}
</style>
<path class="st1" d="M658.17,543.52c-24.08,3.56-48.19,9.84-72.29,16.55c-0.75,0.21-1.49,0.57-2.33,0.89c0,74.04,0,110.88,0,184.76
	c16.58-4.66,32.92-8.86,49.59-12.47c0-16.78,0-11.51,0-28.55c1.8-0.39,3.01-0.63,4.22-0.9c8.25-1.82,16.52-3.26,24.76-4.95
	c30.52-6.26,54.5-25.97,63.08-55.38c4.25-14.23,5.02-23.68,3.48-37.26c-0.76-10.87-3.48-21.36-8.43-30.97
	C707.38,550.21,686,539.4,658.17,543.52z M679.32,609.83c1.11,7,0.91,13.92-0.54,19.73c-3,12.11-11.82,20.64-23.98,23.64
	c-6.99,1.72-14.03,2.73-21.48,4.34c0-25.66,0-35.95,0-61.9c9.63-1.78,19.24-5.06,28.59-3.81
	C672.07,593.2,677.76,600.05,679.32,609.83z M340.03,673.82c0,14.22,0,27.98,0,42.13c17.17-2.17,34.38-5.33,51.93-9.27
	c0,14.72,0,28.84,0,43.36c-17.36,3.9-34.58,7.09-52.12,9.3c0,29.66,0,21.9,0,51.35c-16.54,2.08-32.76,3.23-49.18,3.23
	c0-73.74,0-110.35,0-184.18c39.78,0,79.41-6.82,119.22-16.79c0,15.76,0,31.32,0,47.34C386.68,666.1,363.46,670.86,340.03,673.82z
	 M555.72,706.37c0,15.83,0,31.46,0,47.3c-38.78,11.74-77.54,24.85-116.58,35.9c0-73.82,0-110.65,0-184.75
	c16.28-4.61,32.61-9.61,49.38-14.87c0,58.02,0,79.01,0,137.45C511.27,720.28,533.35,713.14,555.72,706.37z M196.08,913.46h19.86
	c175.18,0,271.26-34.83,356.03-65.55c67.28-24.39,125.39-45.45,212.09-45.45h19.86V86.54H196.08V913.46z M235.8,126.27h528.4v636.82
	c-83.11,3.01-142.82,24.65-205.76,47.47c-78.42,28.42-166.89,60.5-322.64,63.02V126.27z M666.67,262.3
	c-13.4-13.05-17.98-36.66-18.54-48.53l0.69-49.36l-43.6-0.63l-0.35,27.15l-31.8-0.21c-35.48,0-40.61-16.11-41.38-26.59h-43.6
	c1.18,19.37,8.61,36.59,21.31,48.74l5.14,4.86l-6.11,3.4l-42.35,24.65v92.06l21.18,0.56c-0.14-0.14,51.37,2.29,85.32,60.82
	c24.23,41.38,64.29,47.35,85.67,47.42l5.21-0.07v74.84c16.66-1.67,31.31,1.32,43.6,8.89V365.19
	C707.08,324.15,692.7,287.64,666.67,262.3z M663.47,403.02l-5.07,0.14h-1.8c-14.65,0-33.95-4.72-46.24-26.1
	c-29.16-49.99-68.8-69.91-96.85-77.83l-3.82-1.04v-27.42l62.14-36.1h34.99l0.9,4.1c3.47,15.76,11.32,38.05,28.6,54.85
	c17.29,16.87,27.14,42.97,27.14,71.58V403.02z M334.37,329.58v141.66h88.27v43.56h-88.27v70.83H290.8V329.58
	c0-28.35,23.02-51.43,51.38-51.43h80.51v43.62h-80.51C337.89,321.77,334.37,325.29,334.37,329.58z M618.78,471.25v43.56H466.25
	l-0.16-112.27h43.62v68.71H618.78z"/>
</svg>
