<?xml version="1.0" encoding="utf-8"?>
<!-- Generator: Adobe Illustrator 23.0.3, SVG Export Plug-In . SVG Version: 6.00 Build 0)  -->
<svg version="1.1" id="Layer_1" xmlns="http://www.w3.org/2000/svg" xmlns:xlink="http://www.w3.org/1999/xlink" x="0px" y="0px"
	 viewBox="0 0 1000 1000" style="enable-background:new 0 0 1000 1000;" xml:space="preserve">
<style type="text/css">
	.st0{fill:#645A55;}
	.st1{fill:#AF6E23;}
	.st2{fill:#F5F0E6;}
	.st3{fill:#FFFFFF;}
</style>
<g>
	<path class="st1" d="M308.12,118.6h-33.66H76.87v762.8h197.59h33.66h615.02V118.6H308.12z M146.68,188.15
		c0-1.79,0.76-2.68,2.3-2.68h97.55c1.72,0,2.58,0.89,2.58,2.68v31.86c0,1.79-0.86,2.68-2.58,2.68h-61.97v40.5h48.2
		c1.53,0,2.29,0.89,2.29,2.68v32.46c0,1.79-0.77,2.68-2.29,2.68h-48.2v78.32c0,1.79-0.86,2.68-2.58,2.68h-33
		c-1.53,0-2.3-0.89-2.3-2.68V188.15z M146.68,407.91c0-1.71,0.76-2.56,2.3-2.56h32.71c1.72,0,2.58,0.86,2.58,2.57v149.84h61.98
		c1.72,0,2.58,0.85,2.58,2.54v30.52c0,1.7-0.86,2.54-2.58,2.54h-97.27c-1.53,0-2.3-0.85-2.3-2.56V407.91z M259.44,710.65
		c0,16.08-4.45,28.99-13.34,38.71c-8.9,9.73-21.48,14.59-37.73,14.59h-24.1v49.43c0,1.79-0.86,2.68-2.58,2.68h-32.99
		c-1.34,0-2.01-0.89-2.01-2.68V622.21c0-1.79,0.67-2.68,2.01-2.68h59.68c16.07,0,28.6,4.57,37.59,13.7
		c8.99,9.13,13.49,22.44,13.49,39.9V710.65z M889.47,846.47H308.12V153.53h581.36V846.47z"/>
	<path class="st1" d="M214.82,663c-2.39-1.59-5.45-2.58-9.18-2.98c-3.73-0.4-8.08-0.6-13.06-0.6h-8.32v65.51h8.32
		c4.02,0,7.79-0.25,11.34-0.74c3.54-0.5,6.65-1.59,9.32-3.28c2.68-1.68,4.78-4.02,6.31-7c1.53-2.98,2.29-7.04,2.29-12.21v-19.66
		c0-5.16-0.57-9.23-1.72-12.21C218.98,666.87,217.21,664.59,214.82,663z"/>
	<g>
		<g>
			<polygon class="st1" points="403.15,692.25 411.54,692.25 411.54,688.03 403.15,688.03 403.15,679.79 413.81,679.79 
				413.81,675.67 398.65,675.67 398.65,705.14 403.15,705.14 			"/>
			<path class="st1" d="M440.87,696.85h3.93l3.79,8.29h4.74l-4.12-8.86l0.85-0.43c1.17-0.54,2.01-1.43,2.51-2.68
				c0.51-1.25,0.76-2.55,0.76-3.91v-5.97c0-2.28-0.66-4.11-1.99-5.52c-1.33-1.4-3.19-2.11-5.59-2.11h-9.34v29.48h4.45V696.85z
				 M440.87,680.17h3.74c2.84,0,4.26,1.52,4.26,4.55v3.08c0,0.69-0.08,1.39-0.24,2.08c-0.16,0.7-0.55,1.28-1.18,1.75
				c-0.44,0.35-0.94,0.57-1.49,0.66c-0.55,0.1-1.22,0.14-2.01,0.14h-3.08V680.17z"/>
			<rect x="477.64" y="675.67" class="st1" width="4.45" height="29.48"/>
			<path class="st1" d="M523.54,677.25c-0.84-0.71-1.87-1.22-3.1-1.54c-1.23-0.32-2.64-0.47-4.22-0.47c-1.49,0-2.84,0.14-4.05,0.43
				c-1.22,0.29-2.27,0.77-3.15,1.45c-0.88,0.68-1.57,1.6-2.06,2.75c-0.49,1.15-0.73,2.58-0.73,4.29v12.46
				c0,1.61,0.23,2.99,0.69,4.15c0.46,1.15,1.12,2.09,1.99,2.8c0.87,0.71,1.92,1.23,3.15,1.56c1.23,0.33,2.62,0.5,4.17,0.5
				c1.36,0,2.64-0.13,3.84-0.4c1.2-0.27,2.25-0.75,3.15-1.44c0.9-0.7,1.61-1.62,2.13-2.77c0.52-1.15,0.78-2.61,0.78-4.38v-6.97h-9.9
				v4.12h5.4v1.33c0,1.8-0.42,3.24-1.26,4.31c-0.84,1.07-2.14,1.61-3.91,1.61h-0.57c-1.67,0-2.95-0.5-3.81-1.52
				c-0.87-1.01-1.3-2.48-1.3-4.41v-9.38c0-0.95,0.1-1.75,0.28-2.42c0.19-0.66,0.46-1.25,0.81-1.75c0.88-1.17,2.23-1.75,4.03-1.75
				h0.57c0.69,0,1.36,0.08,1.99,0.24c0.63,0.16,1.18,0.43,1.66,0.81c0.47,0.38,0.85,0.87,1.11,1.47c0.27,0.6,0.4,1.34,0.4,2.23v0.14
				h4.5v-0.52c0-1.64-0.22-3.03-0.66-4.15C525.02,678.88,524.38,677.96,523.54,677.25z"/>
			<path class="st1" d="M559.58,675.24c-1.61,0-3.04,0.14-4.29,0.43c-1.25,0.29-2.29,0.78-3.13,1.47c-0.84,0.7-1.48,1.61-1.92,2.75
				c-0.44,1.14-0.66,2.56-0.66,4.27v12.46c0,1.64,0.22,3.03,0.66,4.17c0.44,1.14,1.08,2.06,1.92,2.77c0.84,0.71,1.88,1.23,3.13,1.56
				c1.25,0.33,2.68,0.5,4.29,0.5c1.58,0,2.99-0.15,4.22-0.45c1.23-0.3,2.27-0.81,3.1-1.52c0.84-0.71,1.48-1.64,1.92-2.8
				c0.44-1.15,0.66-2.57,0.66-4.24v-12.46c0-3.25-0.85-5.55-2.54-6.89C565.26,675.91,562.8,675.24,559.58,675.24z M564.98,695.1
				c0,0.88-0.08,1.69-0.24,2.42c-0.16,0.73-0.44,1.35-0.85,1.87c-0.41,0.52-0.95,0.92-1.61,1.21c-0.66,0.28-1.49,0.43-2.46,0.43
				h-0.57c-1.77,0-3.07-0.5-3.89-1.52c-0.82-1.01-1.23-2.48-1.23-4.41v-9.38c0-1.8,0.39-3.24,1.16-4.31
				c0.77-1.07,2.09-1.61,3.96-1.61h0.57c1.67,0,2.95,0.49,3.84,1.47c0.88,0.98,1.33,2.46,1.33,4.45V695.1z"/>
			<path class="st1" d="M610.66,705.14l-4.12-8.86l0.85-0.43c1.17-0.54,2.01-1.43,2.51-2.68c0.51-1.25,0.76-2.55,0.76-3.91v-5.97
				c0-2.28-0.66-4.11-1.99-5.52c-1.33-1.4-3.19-2.11-5.59-2.11h-9.34v29.48h4.45v-8.29h3.93l3.79,8.29H610.66z M603.29,692.3
				c-0.55,0.1-1.22,0.14-2.01,0.14h-3.08v-12.27h3.74c2.84,0,4.26,1.52,4.26,4.55v3.08c0,0.69-0.08,1.39-0.24,2.08
				c-0.16,0.7-0.55,1.28-1.18,1.75C604.34,691.98,603.85,692.21,603.29,692.3z"/>
			<path class="st1" d="M638.45,668.32c0.27-0.38,0.78-1.1,1.54-2.18h-2.46l-0.57,2.84h0.99
				C638.02,668.92,638.19,668.7,638.45,668.32z"/>
			<rect x="634.97" y="675.67" class="st1" width="4.45" height="29.48"/>
			<polygon class="st1" points="664.11,705.14 668.62,705.14 668.62,692.25 677,692.25 677,688.03 668.62,688.03 668.62,679.79 
				679.28,679.79 679.28,675.67 664.11,675.67 			"/>
			<rect x="701.88" y="675.67" class="st1" width="4.45" height="29.48"/>
			<path class="st1" d="M740.46,705.61c1.55,0,2.93-0.15,4.15-0.45c1.22-0.3,2.25-0.81,3.1-1.52c0.85-0.71,1.51-1.64,1.97-2.8
				c0.46-1.15,0.69-2.57,0.69-4.24v-2.51h-4.45v1c0,0.82-0.09,1.58-0.26,2.27c-0.17,0.7-0.47,1.31-0.88,1.85
				c-0.47,0.6-1.07,1.05-1.78,1.35c-0.71,0.3-1.48,0.45-2.3,0.45h-0.57c-1.36,0-2.51-0.39-3.46-1.18c-1.11-1.04-1.66-2.62-1.66-4.74
				v-9.38c0-0.95,0.1-1.75,0.28-2.42c0.19-0.66,0.46-1.25,0.81-1.75c0.88-1.17,2.23-1.75,4.03-1.75h0.57c0.66,0,1.3,0.08,1.92,0.24
				c0.62,0.16,1.17,0.42,1.66,0.78c0.49,0.36,0.88,0.84,1.16,1.42c0.28,0.58,0.43,1.3,0.43,2.16v0.28h4.5v-0.52
				c0-3.19-0.82-5.47-2.46-6.85c-1.64-1.37-4.12-2.06-7.44-2.06c-1.58,0-2.99,0.15-4.22,0.45c-1.23,0.3-2.27,0.81-3.13,1.52
				c-0.85,0.71-1.51,1.63-1.97,2.77c-0.46,1.14-0.69,2.53-0.69,4.17v12.46c0,3.25,0.85,5.57,2.56,6.94
				C734.72,704.93,737.2,705.61,740.46,705.61z"/>
			<path class="st1" d="M776.35,703.55c0.84,0.71,1.88,1.23,3.13,1.56c1.25,0.33,2.68,0.5,4.29,0.5c1.58,0,2.98-0.15,4.22-0.45
				c1.23-0.3,2.27-0.81,3.1-1.52c0.84-0.71,1.48-1.64,1.92-2.8c0.44-1.15,0.66-2.57,0.66-4.24v-12.46c0-3.25-0.85-5.55-2.54-6.89
				c-1.69-1.34-4.15-2.01-7.37-2.01c-1.61,0-3.04,0.14-4.29,0.43c-1.25,0.29-2.29,0.78-3.13,1.47c-0.84,0.7-1.48,1.61-1.92,2.75
				c-0.44,1.14-0.66,2.56-0.66,4.27v12.46c0,1.64,0.22,3.03,0.66,4.17C774.88,701.92,775.51,702.84,776.35,703.55z M778.32,685.71
				c0-1.8,0.39-3.24,1.16-4.31c0.77-1.07,2.09-1.61,3.96-1.61h0.57c1.67,0,2.95,0.49,3.84,1.47c0.88,0.98,1.33,2.46,1.33,4.45v9.38
				c0,0.88-0.08,1.69-0.24,2.42c-0.16,0.73-0.44,1.35-0.85,1.87c-0.41,0.52-0.95,0.92-1.61,1.21c-0.66,0.28-1.49,0.43-2.46,0.43
				h-0.57c-1.77,0-3.06-0.5-3.89-1.52c-0.82-1.01-1.23-2.48-1.23-4.41V685.71z"/>
		</g>
		<g>
			<g>
				<path class="st1" d="M407.98,723.45v37.59h15.43c0.43,0,0.64,0.22,0.64,0.64v7.66c0,0.43-0.21,0.64-0.64,0.64h-24.23
					c-0.38,0-0.57-0.22-0.57-0.64v-45.88c0-0.43,0.19-0.64,0.57-0.64h8.15C407.76,722.81,407.98,723.02,407.98,723.45z"/>
				<path class="st1" d="M442.99,723.24c0.09-0.29,0.26-0.43,0.5-0.43h8.86c0.24,0,0.41,0.14,0.5,0.43l12.37,45.95
					c0.09,0.52-0.12,0.78-0.64,0.78h-8.15c-0.28,0-0.45-0.14-0.5-0.43l-2.78-10.01h-10.43l-2.72,10.01c-0.1,0.28-0.26,0.43-0.5,0.43
					h-8.22c-0.52,0-0.74-0.26-0.64-0.78L442.99,723.24z M450.93,750.61l-3.07-10.79l-2.86,10.79H450.93z"/>
				<path class="st1" d="M490.59,741.03c1.33,0.67,2.74,1.42,4.22,2.25c1.48,0.83,2.83,1.83,4.07,2.97s2.25,2.43,3.04,3.86
					c0.79,1.43,1.18,3.07,1.18,4.93c0,0.53-0.04,1.17-0.11,1.93c-0.07,0.76-0.2,1.59-0.39,2.47c-0.19,0.88-0.46,1.78-0.82,2.72
					c-0.36,0.93-0.82,1.82-1.39,2.68c-2.62,3.91-6.79,5.86-12.5,5.86c-1.53,0-3.07-0.19-4.65-0.57c-1.57-0.38-3.06-0.96-4.47-1.75
					c-1.41-0.78-2.66-1.77-3.75-2.96c-1.1-1.19-1.93-2.62-2.5-4.29c-0.1-0.24-0.02-0.43,0.21-0.57l6.58-5.65
					c0.38-0.28,0.69-0.24,0.93,0.14c0.1,0.19,0.2,0.42,0.33,0.68c0.12,0.26,0.27,0.59,0.46,0.97c0.52,1.1,1.38,2.11,2.57,3.04
					c1.19,0.93,2.5,1.39,3.93,1.39c0.57,0,1.15-0.08,1.75-0.25c0.59-0.17,1.15-0.43,1.68-0.78c0.52-0.36,0.95-0.83,1.28-1.43
					c0.33-0.59,0.5-1.32,0.5-2.18c0-0.81-0.25-1.55-0.75-2.22c-0.5-0.67-1.12-1.25-1.86-1.75c-0.74-0.5-1.52-0.93-2.36-1.28
					c-0.83-0.36-1.61-0.68-2.32-0.97c-1.62-0.67-3.23-1.41-4.82-2.25c-1.6-0.83-3.09-1.87-4.47-3.11c-2.91-2.72-4.36-5.81-4.36-9.29
					c0-2.24,0.46-4.19,1.39-5.86c0.93-1.67,2.15-3.06,3.68-4.18c1.52-1.12,3.24-1.96,5.15-2.54c1.91-0.57,3.83-0.86,5.79-0.86
					c6.15,0,10.72,3.19,13.72,9.58c0.14,0.33,0.07,0.6-0.22,0.78l-6.36,4.43c-0.24,0.14-0.48,0.07-0.72-0.21
					c-1.24-1.76-2.43-3.06-3.57-3.9c-1.14-0.83-2.43-1.25-3.86-1.25c-0.38,0-0.86,0.05-1.43,0.14c-0.57,0.09-1.12,0.26-1.64,0.5
					c-0.52,0.24-0.98,0.56-1.36,0.96c-0.38,0.41-0.57,0.94-0.57,1.61c0,0.81,0.32,1.52,0.97,2.14c0.64,0.62,1.43,1.18,2.36,1.68
					c0.93,0.5,1.89,0.94,2.89,1.33C489.02,740.34,489.87,740.7,490.59,741.03z"/>
				<path class="st1" d="M555.91,722.81c4,0,7.12,1.1,9.36,3.29c2.24,2.19,3.36,5.39,3.36,9.58v9c0,3.86-1.11,6.96-3.32,9.29
					c-2.22,2.33-5.35,3.5-9.4,3.5h-6v11.87c0,0.43-0.22,0.64-0.64,0.64h-8.22c-0.33,0-0.5-0.22-0.5-0.64v-45.88
					c0-0.43,0.17-0.64,0.5-0.64H555.91z M559.27,737.81c0-1.24-0.14-2.22-0.43-2.93c-0.29-0.71-0.73-1.26-1.32-1.64
					c-0.6-0.38-1.36-0.62-2.29-0.72c-0.93-0.09-2.01-0.14-3.25-0.14h-2.07v15.72h2.07c1,0,1.94-0.06,2.82-0.18
					c0.88-0.12,1.66-0.38,2.33-0.78c0.67-0.41,1.19-0.97,1.57-1.68c0.38-0.72,0.57-1.69,0.57-2.93V737.81z"/>
				<path class="st1" d="M578.7,769.33v-45.88c0-0.43,0.19-0.64,0.57-0.64h8.15c0.43,0,0.65,0.22,0.65,0.64v45.88
					c0,0.43-0.22,0.64-0.65,0.64h-8.15C578.89,769.98,578.7,769.76,578.7,769.33z"/>
				<path class="st1" d="M601.21,769.33v-45.88c0-0.43,0.19-0.64,0.57-0.64h24.3c0.43,0,0.64,0.22,0.64,0.64v7.65
					c0,0.43-0.22,0.64-0.64,0.64h-15.44v9.72h12.01c0.38,0,0.57,0.22,0.57,0.64v7.79c0,0.43-0.19,0.64-0.57,0.64h-12.01v10.5h15.44
					c0.43,0,0.64,0.22,0.64,0.65v7.65c0,0.43-0.22,0.64-0.64,0.64h-24.3C601.41,769.98,601.21,769.76,601.21,769.33z"/>
				<path class="st1" d="M657.24,722.81c4.86,0,8.5,1.33,10.93,4c2.14,2.38,3.22,5.76,3.22,10.15v18.94c0,4.34-1.2,7.77-3.61,10.29
					c-2.41,2.53-5.92,3.79-10.54,3.79h-17.86c-0.38,0-0.57-0.22-0.57-0.64v-45.88c0-0.43,0.19-0.64,0.57-0.64H657.24z M662.03,739.1
					c0-2.29-0.6-4.09-1.79-5.4c-1.19-1.31-3.05-1.96-5.57-1.96h-6.43v29.3h6.43c2.14,0,3.91-0.64,5.29-1.93
					c1.38-1.29,2.07-3.07,2.07-5.36V739.1z"/>
				<path class="st1" d="M710.7,751.32c-1.05,2.15-2.52,3.67-4.43,4.57l6,13.22c0.09,0.24,0.09,0.44,0,0.61
					c-0.1,0.17-0.26,0.25-0.5,0.25h-8.79c-0.24,0-0.41-0.12-0.5-0.36l-5.57-12.15h-3.65v11.87c0,0.43-0.22,0.64-0.64,0.64h-8.22
					c-0.33,0-0.5-0.22-0.5-0.64v-45.88c0-0.43,0.17-0.64,0.5-0.64h14.87c4,0,7.12,1.1,9.36,3.29c2.24,2.19,3.36,5.39,3.36,9.58v9
					c0,1.24-0.11,2.43-0.32,3.57C711.45,749.4,711.13,750.42,710.7,751.32z M702.62,737.81c0-1.24-0.13-2.22-0.39-2.96
					c-0.26-0.74-0.68-1.3-1.25-1.68c-0.57-0.38-1.32-0.62-2.25-0.71c-0.93-0.1-2.06-0.14-3.39-0.14h-2.07v15.79h2.07
					c1.14,0,2.15-0.04,3.04-0.11c0.88-0.07,1.63-0.29,2.25-0.65c0.62-0.35,1.09-0.91,1.43-1.68c0.33-0.76,0.52-1.83,0.57-3.22
					V737.81z"/>
				<path class="st1" d="M733.57,723.24c0.09-0.29,0.26-0.43,0.5-0.43h8.86c0.24,0,0.4,0.14,0.5,0.43l12.36,45.95
					c0.1,0.52-0.12,0.78-0.64,0.78H747c-0.28,0-0.46-0.14-0.5-0.43l-2.79-10.01h-10.43l-2.72,10.01c-0.09,0.28-0.26,0.43-0.5,0.43
					h-8.22c-0.52,0-0.74-0.26-0.64-0.78L733.57,723.24z M741.5,750.61l-3.07-10.79l-2.86,10.79H741.5z"/>
				<path class="st1" d="M781.17,741.03c1.33,0.67,2.74,1.42,4.22,2.25c1.48,0.83,2.83,1.83,4.07,2.97
					c1.24,1.14,2.25,2.43,3.04,3.86c0.78,1.43,1.18,3.07,1.18,4.93c0,0.53-0.04,1.17-0.11,1.93c-0.07,0.76-0.2,1.59-0.39,2.47
					s-0.46,1.78-0.82,2.72c-0.36,0.93-0.82,1.82-1.39,2.68c-2.62,3.91-6.79,5.86-12.51,5.86c-1.52,0-3.07-0.19-4.65-0.57
					c-1.57-0.38-3.06-0.96-4.46-1.75c-1.41-0.78-2.66-1.77-3.76-2.96c-1.09-1.19-1.93-2.62-2.5-4.29c-0.09-0.24-0.02-0.43,0.22-0.57
					l6.57-5.65c0.38-0.28,0.69-0.24,0.93,0.14c0.09,0.19,0.2,0.42,0.32,0.68c0.12,0.26,0.27,0.59,0.46,0.97
					c0.52,1.1,1.38,2.11,2.57,3.04s2.5,1.39,3.93,1.39c0.57,0,1.15-0.08,1.75-0.25c0.59-0.17,1.15-0.43,1.68-0.78
					c0.52-0.36,0.96-0.83,1.29-1.43c0.33-0.59,0.5-1.32,0.5-2.18c0-0.81-0.25-1.55-0.75-2.22c-0.5-0.67-1.12-1.25-1.86-1.75
					c-0.74-0.5-1.52-0.93-2.36-1.28c-0.83-0.36-1.61-0.68-2.33-0.97c-1.62-0.67-3.23-1.41-4.82-2.25c-1.6-0.83-3.09-1.87-4.47-3.11
					c-2.91-2.72-4.36-5.81-4.36-9.29c0-2.24,0.47-4.19,1.39-5.86c0.93-1.67,2.15-3.06,3.68-4.18c1.52-1.12,3.24-1.96,5.14-2.54
					c1.91-0.57,3.84-0.86,5.79-0.86c6.15,0,10.72,3.19,13.72,9.58c0.14,0.33,0.07,0.6-0.21,0.78l-6.36,4.43
					c-0.24,0.14-0.48,0.07-0.72-0.21c-1.24-1.76-2.43-3.06-3.57-3.9c-1.14-0.83-2.43-1.25-3.86-1.25c-0.38,0-0.86,0.05-1.43,0.14
					c-0.57,0.09-1.12,0.26-1.65,0.5c-0.52,0.24-0.98,0.56-1.36,0.96c-0.38,0.41-0.57,0.94-0.57,1.61c0,0.81,0.32,1.52,0.96,2.14
					c0.64,0.62,1.43,1.18,2.36,1.68c0.93,0.5,1.89,0.94,2.89,1.33S780.45,740.7,781.17,741.03z"/>
			</g>
		</g>
	</g>
	<g>
		<g>
			<g>
				<g>
					<path class="st1" d="M751.75,319.08c-12.64-12.3-16.94-34.56-17.48-45.79l0.68-46.52l-41.15-0.59l-0.34,25.58l-29.97-0.2
						c-33.49,0-38.32-15.18-39.06-25.09h-41.11c1.07,18.31,8.1,34.52,20.11,45.99l4.78,4.59l-5.76,3.22l-39.93,23.24v86.85
						l19.97,0.54c-0.1-0.1,48.48,2.15,80.55,57.36c22.85,39.1,60.63,44.72,80.8,44.77l4.93-0.05v131.18h41.11V416.18
						C789.87,377.47,776.35,343,751.75,319.08z M748.77,451.87l-4.78,0.15h-1.71c-13.82,0-32.03-4.44-43.6-24.6
						c-27.53-47.21-64.93-66-91.44-73.42l-3.56-1.03v-25.87l58.58-34.03h33.05l0.83,3.81c3.32,14.89,10.69,35.93,27,51.8
						c16.31,15.92,25.63,40.52,25.63,67.52V451.87z"/>
				</g>
				<g>
					<path class="st1" d="M438.23,382.59v133.67h83.29v41.11h-83.29v66.83h-41.11V382.59c0-26.75,21.72-48.53,48.48-48.53h75.96
						v41.15H445.6C441.55,375.22,438.23,378.54,438.23,382.59z"/>
				</g>
				<g>
					<polygon class="st1" points="706.59,516.26 706.59,557.37 562.67,557.37 562.52,451.43 603.68,451.43 603.68,516.26 					"/>
				</g>
			</g>
		</g>
	</g>
</g>
</svg>
