<?xml version="1.0" encoding="utf-8"?>
<!-- Generator: Adobe Illustrator 23.0.3, SVG Export Plug-In . SVG Version: 6.00 Build 0)  -->
<svg version="1.1" id="Layer_1" xmlns="http://www.w3.org/2000/svg" xmlns:xlink="http://www.w3.org/1999/xlink" x="0px" y="0px"
	 viewBox="0 0 1000 800" style="enable-background:new 0 0 1000 800;" xml:space="preserve">
<style type="text/css">
	.st0{fill:#645A55;}
	.st1{fill:#AF6E23;}
	.st2{fill:#F5F0E6;}
	.st3{fill:#FFFFFF;}
</style>
<path class="st1" d="M80.7,206.43h-9.78v-64.04h32.95v8.96H80.7v17.91h18.22v9.16H80.7V206.43z M162.65,206.43h-9.68v-64.04h20.28
	c5.22,0,9.27,1.53,12.15,4.58c2.88,3.06,4.32,7.05,4.32,12v12.97c0,2.95-0.55,5.78-1.65,8.49c-1.1,2.71-2.92,4.65-5.46,5.82
	l-1.85,0.93l8.96,19.25h-10.3l-8.24-18.02h-8.55V206.43z M162.65,178.84h6.69c1.72,0,3.17-0.1,4.38-0.31
	c1.2-0.2,2.28-0.68,3.24-1.44c1.37-1.03,2.23-2.3,2.57-3.81c0.34-1.51,0.51-3.02,0.51-4.53v-6.69c0-6.59-3.09-9.88-9.27-9.88h-8.13
	V178.84z M252.22,142.39h-9.68v64.04h9.68V142.39z M310.44,202.98c1.89,1.54,4.17,2.68,6.85,3.4c2.68,0.72,5.7,1.08,9.06,1.08
	c2.95,0,5.73-0.29,8.34-0.87c2.61-0.58,4.89-1.63,6.85-3.14c1.96-1.51,3.5-3.52,4.63-6.02c1.13-2.51,1.7-5.68,1.7-9.52v-15.14
	h-21.52v8.96h11.74v2.88c0,3.91-0.91,7.04-2.73,9.37c-1.82,2.34-4.65,3.5-8.49,3.5h-1.24c-3.64,0-6.4-1.1-8.29-3.3
	c-1.89-2.2-2.83-5.39-2.83-9.57v-20.38c0-2.06,0.21-3.81,0.62-5.25c0.41-1.44,0.99-2.71,1.75-3.81c1.92-2.54,4.84-3.81,8.75-3.81
	h1.24c1.51,0,2.95,0.17,4.32,0.51c1.37,0.34,2.57,0.93,3.6,1.75c1.03,0.82,1.84,1.89,2.42,3.19c0.58,1.31,0.87,2.92,0.87,4.84v0.31
	h9.78v-1.13c0-3.57-0.48-6.57-1.44-9.01c-0.96-2.44-2.35-4.43-4.17-5.97c-1.82-1.54-4.07-2.66-6.74-3.35
	c-2.68-0.69-5.73-1.03-9.16-1.03c-3.23,0-6.16,0.31-8.8,0.92c-2.64,0.62-4.93,1.67-6.85,3.14c-1.92,1.48-3.41,3.47-4.48,5.97
	c-1.07,2.51-1.6,5.61-1.6,9.32v27.08c0,3.5,0.5,6.5,1.49,9.01C307.11,199.41,308.56,201.44,310.44,202.98z M400.28,196.96
	c-0.96-2.47-1.44-5.49-1.44-9.06v-27.08c0-3.71,0.48-6.8,1.44-9.27c0.96-2.47,2.35-4.46,4.17-5.97c1.82-1.51,4.08-2.57,6.79-3.2
	c2.71-0.62,5.82-0.92,9.32-0.92c7,0,12.34,1.46,16.01,4.38c3.67,2.92,5.51,7.91,5.51,14.98v27.08c0,3.64-0.48,6.71-1.44,9.21
	c-0.96,2.51-2.35,4.53-4.17,6.08c-1.82,1.54-4.07,2.64-6.74,3.29c-2.68,0.65-5.73,0.98-9.16,0.98c-3.5,0-6.61-0.36-9.32-1.08
	c-2.71-0.72-4.98-1.86-6.79-3.4C402.62,201.44,401.24,199.43,400.28,196.96z M408.72,184.61c0,4.19,0.89,7.38,2.68,9.57
	c1.78,2.2,4.6,3.3,8.44,3.3h1.24c2.13,0,3.91-0.31,5.35-0.93c1.44-0.62,2.61-1.49,3.5-2.62c0.89-1.13,1.51-2.49,1.85-4.07
	c0.34-1.58,0.51-3.33,0.51-5.25v-20.38c0-4.33-0.96-7.55-2.88-9.68c-1.92-2.13-4.7-3.19-8.34-3.19h-1.24c-4.05,0-6.92,1.17-8.6,3.5
	c-1.68,2.33-2.52,5.46-2.52,9.37V184.61z M504.47,206.43h-9.68v-64.04h20.28c5.22,0,9.27,1.53,12.15,4.58
	c2.88,3.06,4.32,7.05,4.32,12v12.97c0,2.95-0.55,5.78-1.65,8.49c-1.1,2.71-2.92,4.65-5.46,5.82l-1.85,0.93l8.96,19.25h-10.3
	l-8.24-18.02h-8.55V206.43z M504.47,178.84h6.69c1.72,0,3.17-0.1,4.38-0.31c1.2-0.2,2.28-0.68,3.24-1.44
	c1.37-1.03,2.23-2.3,2.57-3.81c0.34-1.51,0.51-3.02,0.51-4.53v-6.69c0-6.59-3.09-9.88-9.27-9.88h-8.13V178.84z M594.04,142.39h-9.68
	v64.04h9.68V142.39z M591.93,126.43c0.58-0.82,1.7-2.4,3.34-4.73h-5.35l-1.24,6.18h2.16C590.99,127.74,591.35,127.26,591.93,126.43z
	 M657.46,178.43h18.22v-9.16h-18.22v-17.91h23.17v-8.96h-32.95v64.04h9.78V178.43z M739.41,142.39h-9.68v64.04h9.68V142.39z
	 M813.54,207.46c3.36,0,6.37-0.32,9.01-0.98c2.64-0.65,4.89-1.75,6.74-3.29c1.85-1.55,3.28-3.57,4.27-6.08
	c0.99-2.51,1.49-5.58,1.49-9.21v-5.46h-9.68v2.16c0,1.79-0.19,3.43-0.57,4.94c-0.38,1.51-1.01,2.85-1.91,4.02
	c-1.03,1.31-2.32,2.28-3.86,2.93c-1.54,0.65-3.21,0.98-4.99,0.98h-1.24c-2.95,0-5.46-0.86-7.52-2.57c-2.4-2.27-3.6-5.7-3.6-10.3
	v-20.38c0-2.06,0.21-3.81,0.62-5.25c0.41-1.44,0.99-2.71,1.75-3.81c1.92-2.54,4.84-3.81,8.75-3.81h1.24c1.44,0,2.83,0.17,4.17,0.51
	c1.34,0.34,2.54,0.91,3.6,1.7c1.06,0.79,1.9,1.82,2.52,3.09c0.62,1.27,0.93,2.83,0.93,4.68v0.62h9.78v-1.13
	c0-6.93-1.79-11.89-5.35-14.88c-3.57-2.98-8.96-4.48-16.16-4.48c-3.43,0-6.49,0.33-9.16,0.98c-2.68,0.65-4.94,1.75-6.8,3.3
	c-1.85,1.54-3.28,3.55-4.27,6.02c-1,2.47-1.49,5.49-1.49,9.06v27.08c0,7.07,1.85,12.1,5.56,15.08
	C801.08,205.97,806.47,207.46,813.54,207.46z M929.17,160.82v27.08c0,3.64-0.48,6.71-1.44,9.21c-0.96,2.51-2.35,4.53-4.17,6.08
	c-1.82,1.54-4.07,2.64-6.74,3.29c-2.68,0.65-5.73,0.98-9.16,0.98c-3.5,0-6.61-0.36-9.32-1.08c-2.71-0.72-4.98-1.86-6.79-3.4
	c-1.82-1.54-3.21-3.55-4.17-6.02c-0.96-2.47-1.44-5.49-1.44-9.06v-27.08c0-3.71,0.48-6.8,1.44-9.27c0.96-2.47,2.35-4.46,4.17-5.97
	c1.82-1.51,4.08-2.57,6.79-3.2c2.71-0.62,5.82-0.92,9.32-0.92c7,0,12.34,1.46,16.01,4.38C927.33,148.76,929.17,153.75,929.17,160.82
	z M919.38,164.22c0-4.33-0.96-7.55-2.88-9.68c-1.92-2.13-4.7-3.19-8.34-3.19h-1.24c-4.05,0-6.92,1.17-8.6,3.5
	c-1.68,2.33-2.52,5.46-2.52,9.37v20.38c0,4.19,0.89,7.38,2.68,9.57c1.78,2.2,4.6,3.3,8.44,3.3h1.24c2.13,0,3.91-0.31,5.35-0.93
	c1.44-0.62,2.61-1.49,3.5-2.62c0.89-1.13,1.51-2.49,1.85-4.07c0.34-1.58,0.51-3.33,0.51-5.25V164.22z M125.66,657.36H92.17v-81.57
	c0-0.94-0.47-1.4-1.4-1.4H73.09c-0.83,0-1.24,0.47-1.24,1.39v99.57c0,0.93,0.41,1.39,1.24,1.39h52.57c0.93,0,1.39-0.46,1.39-1.39
	v-16.62C127.05,657.83,126.6,657.36,125.66,657.36z M189.55,575.32l26.83,99.72c0.2,1.14-0.26,1.7-1.39,1.7h-17.69
	c-0.62,0-0.98-0.31-1.08-0.93l-6.04-21.72h-22.64l-5.89,21.72c-0.21,0.62-0.57,0.93-1.08,0.93h-17.84c-1.14,0-1.61-0.56-1.39-1.7
	l26.82-99.72c0.2-0.63,0.56-0.94,1.08-0.94h19.23C188.99,574.39,189.35,574.7,189.55,575.32z M185.37,634.72l-6.67-23.41
	l-6.21,23.41H185.37z M289.43,625.26c-2.69-2.48-5.64-4.63-8.84-6.44c-3.2-1.81-6.25-3.43-9.15-4.89c-1.55-0.71-3.41-1.49-5.58-2.32
	c-2.17-0.83-4.27-1.78-6.28-2.88c-2.02-1.08-3.72-2.29-5.12-3.64c-1.4-1.34-2.1-2.89-2.1-4.65c0-1.45,0.41-2.61,1.24-3.49
	c0.83-0.87,1.81-1.57,2.95-2.09c1.14-0.52,2.33-0.88,3.56-1.09c1.24-0.2,2.28-0.31,3.1-0.31c3.11,0,5.89,0.9,8.37,2.71
	c2.49,1.82,5.07,4.63,7.75,8.46c0.52,0.62,1.03,0.77,1.55,0.46l13.8-9.62c0.62-0.41,0.78-0.98,0.47-1.7
	c-6.52-13.86-16.44-20.78-29.78-20.78c-4.24,0-8.42,0.62-12.56,1.86c-4.14,1.24-7.86,3.08-11.17,5.5c-3.31,2.43-5.97,5.45-7.98,9.08
	c-2.02,3.62-3.03,7.85-3.03,12.71c0,7.55,3.15,14.27,9.46,20.16c3,2.69,6.23,4.94,9.69,6.75c3.47,1.81,6.95,3.43,10.47,4.88
	c1.55,0.63,3.23,1.32,5.04,2.1c1.81,0.78,3.52,1.7,5.12,2.79c1.61,1.09,2.96,2.36,4.04,3.8s1.62,3.05,1.62,4.81
	c0,1.86-0.36,3.44-1.08,4.73c-0.72,1.3-1.65,2.33-2.79,3.11c-1.14,0.78-2.36,1.34-3.64,1.7c-1.3,0.37-2.57,0.55-3.8,0.55
	c-3.1,0-5.95-1.01-8.53-3.03c-2.58-2.02-4.45-4.21-5.58-6.59c-0.41-0.83-0.75-1.53-1.01-2.1c-0.26-0.57-0.49-1.06-0.71-1.47
	c-0.51-0.82-1.18-0.93-2.01-0.31l-14.27,12.25c-0.51,0.31-0.67,0.72-0.46,1.24c1.23,3.62,3.04,6.72,5.42,9.31
	c2.37,2.58,5.09,4.73,8.14,6.43c3.05,1.71,6.28,2.97,9.69,3.8c3.41,0.83,6.77,1.24,10.08,1.24c12.4,0,21.45-4.24,27.13-12.72
	c1.24-1.86,2.25-3.8,3.03-5.81c0.78-2.02,1.38-3.98,1.78-5.89c0.41-1.91,0.71-3.7,0.86-5.35c0.16-1.65,0.24-3.04,0.24-4.19
	c0-4.03-0.86-7.59-2.57-10.7C294.32,630.53,292.12,627.74,289.43,625.26z M433.51,581.52c4.86,4.75,7.29,11.69,7.29,20.78v19.54
	c0,8.38-2.4,15.1-7.21,20.16c-4.81,5.06-11.61,7.59-20.39,7.59h-13.03v25.75c0,0.93-0.47,1.39-1.39,1.39h-17.84
	c-0.72,0-1.08-0.47-1.08-1.39v-99.57c0-0.93,0.36-1.39,1.08-1.39h32.26C421.88,574.39,428.65,576.77,433.51,581.52z M420.48,606.96
	c0-2.68-0.31-4.81-0.93-6.36c-0.63-1.54-1.58-2.74-2.87-3.56c-1.3-0.83-2.96-1.34-4.97-1.55c-2.02-0.2-4.37-0.31-7.06-0.31h-4.5
	v34.12h4.5c2.17,0,4.21-0.13,6.12-0.39c1.91-0.26,3.6-0.83,5.05-1.7c1.45-0.88,2.58-2.1,3.41-3.64c0.82-1.55,1.24-3.67,1.24-6.36
	V606.96z M481.58,574.39h-17.68c-0.83,0-1.24,0.47-1.24,1.39v99.57c0,0.93,0.41,1.39,1.24,1.39h17.68c0.94,0,1.4-0.47,1.4-1.39
	v-99.57C482.99,574.86,482.52,574.39,481.58,574.39z M565.49,574.39h-52.73c-0.83,0-1.24,0.47-1.24,1.39v99.57
	c0,0.93,0.41,1.39,1.24,1.39h52.73c0.93,0,1.39-0.47,1.39-1.39v-16.59c0-0.94-0.47-1.4-1.39-1.4h-33.5v-22.79h26.06
	c0.83,0,1.24-0.47,1.24-1.39v-16.91c0-0.93-0.41-1.39-1.24-1.39h-26.06v-21.09h33.5c0.93,0,1.39-0.47,1.39-1.39v-16.6
	C566.88,574.86,566.42,574.39,565.49,574.39z M656.83,583.08c4.65,5.17,6.98,12.51,6.98,22.02v41.1c0,9.41-2.61,16.86-7.83,22.33
	c-5.22,5.49-12.84,8.22-22.87,8.22h-38.77c-0.83,0-1.24-0.47-1.24-1.39v-99.57c0-0.93,0.41-1.39,1.24-1.39h38.77
	C643.65,574.39,651.56,577.28,656.83,583.08z M643.49,609.75c0-4.97-1.3-8.86-3.88-11.71c-2.58-2.84-6.62-4.26-12.09-4.26h-13.96
	v63.58h13.96c4.65,0,8.48-1.39,11.48-4.18c3-2.8,4.5-6.67,4.5-11.63V609.75z M739.49,646.19l13.03,28.7c0.2,0.52,0.2,0.96,0,1.31
	c-0.21,0.37-0.57,0.55-1.09,0.55h-19.08c-0.52,0-0.88-0.26-1.08-0.78l-12.09-26.37h-7.91v25.75c0,0.93-0.47,1.39-1.39,1.39h-17.84
	c-0.72,0-1.08-0.47-1.08-1.39v-99.57c0-0.93,0.36-1.39,1.08-1.39h32.26c8.69,0,15.45,2.38,20.32,7.14
	c4.86,4.75,7.29,11.69,7.29,20.78v19.54c0,2.69-0.23,5.28-0.7,7.75c-0.46,2.49-1.16,4.71-2.09,6.67
	C746.83,640.93,743.63,644.23,739.49,646.19z M731.58,606.96c0-2.68-0.28-4.83-0.85-6.43c-0.57-1.61-1.47-2.82-2.72-3.65
	c-1.24-0.82-2.87-1.34-4.89-1.54c-2.01-0.21-4.47-0.31-7.37-0.31h-4.5v34.27h4.5c2.48,0,4.68-0.08,6.59-0.23
	c1.91-0.16,3.55-0.63,4.89-1.4c1.34-0.77,2.37-1.99,3.11-3.64c0.72-1.65,1.13-3.98,1.23-6.98V606.96z M820.14,575.32l26.82,99.72
	c0.21,1.14-0.26,1.7-1.39,1.7h-17.68c-0.62,0-0.99-0.31-1.08-0.93l-6.05-21.72h-22.64l-5.89,21.72c-0.2,0.62-0.56,0.93-1.09,0.93
	H773.3c-1.14,0-1.61-0.56-1.39-1.7l26.83-99.72c0.2-0.63,0.56-0.94,1.08-0.94h19.23C819.56,574.39,819.92,574.7,820.14,575.32z
	 M815.95,634.72l-6.67-23.41l-6.2,23.41H815.95z M920.02,625.26c-2.69-2.48-5.64-4.63-8.84-6.44c-3.21-1.81-6.26-3.43-9.16-4.89
	c-1.55-0.71-3.41-1.49-5.58-2.32c-2.17-0.83-4.26-1.78-6.28-2.88c-2.01-1.08-3.72-2.29-5.12-3.64c-1.39-1.34-2.09-2.89-2.09-4.65
	c0-1.45,0.41-2.61,1.23-3.49c0.83-0.87,1.81-1.57,2.95-2.09c1.14-0.52,2.33-0.88,3.57-1.09c1.23-0.2,2.27-0.31,3.1-0.31
	c3.1,0,5.9,0.9,8.38,2.71c2.48,1.82,5.06,4.63,7.75,8.46c0.51,0.62,1.03,0.77,1.55,0.46l13.8-9.62c0.62-0.41,0.77-0.98,0.46-1.7
	c-6.51-13.86-16.43-20.78-29.77-20.78c-4.24,0-8.43,0.62-12.57,1.86c-4.13,1.24-7.85,3.08-11.16,5.5c-3.32,2.43-5.97,5.45-7.99,9.08
	c-2.01,3.62-3.03,7.85-3.03,12.71c0,7.55,3.16,14.27,9.47,20.16c3,2.69,6.23,4.94,9.69,6.75c3.46,1.81,6.95,3.43,10.46,4.88
	c1.55,0.63,3.24,1.32,5.05,2.1c1.81,0.78,3.51,1.7,5.12,2.79c1.61,1.09,2.95,2.36,4.03,3.8c1.08,1.45,1.63,3.05,1.63,4.81
	c0,1.86-0.36,3.44-1.08,4.73c-0.72,1.3-1.66,2.33-2.8,3.11c-1.14,0.78-2.36,1.34-3.64,1.7c-1.3,0.37-2.56,0.55-3.8,0.55
	c-3.1,0-5.95-1.01-8.53-3.03c-2.58-2.02-4.45-4.21-5.58-6.59c-0.41-0.83-0.75-1.53-1.01-2.1c-0.26-0.57-0.49-1.06-0.7-1.47
	c-0.52-0.82-1.19-0.93-2.02-0.31l-14.26,12.25c-0.52,0.31-0.67,0.72-0.47,1.24c1.24,3.62,3.05,6.72,5.42,9.31
	c2.38,2.58,5.1,4.73,8.15,6.43c3.04,1.71,6.28,2.97,9.69,3.8c3.41,0.83,6.77,1.24,10.08,1.24c12.41,0,21.45-4.24,27.14-12.72
	c1.24-1.86,2.25-3.8,3.03-5.81c0.78-2.02,1.37-3.98,1.78-5.89c0.41-1.91,0.7-3.7,0.86-5.35c0.15-1.65,0.23-3.04,0.23-4.19
	c0-4.03-0.86-7.59-2.56-10.7C924.9,630.53,922.7,627.74,920.02,625.26z M463.93,479.69h32.59c1.7,0,2.55-0.85,2.55-2.55V402.6h47.61
	c1.51,0,2.27-0.85,2.27-2.55v-30.89c0-1.7-0.76-2.55-2.27-2.55h-47.61v-38.54h61.22c1.7,0,2.55-0.85,2.55-2.55v-30.32
	c0-1.7-0.85-2.55-2.55-2.55h-96.36c-1.52,0-2.27,0.85-2.27,2.55v181.95C461.67,478.84,462.42,479.69,463.93,479.69z M604.79,479.69
	h96.08c1.7,0,2.55-0.84,2.55-2.53v-30.37c0-1.68-0.85-2.53-2.55-2.53h-61.22V295.2c0-1.7-0.85-2.56-2.55-2.56h-32.31
	c-1.52,0-2.27,0.85-2.27,2.55v181.95C602.52,478.84,603.27,479.69,604.79,479.69z M743.09,477.14V295.19c0-1.7,0.66-2.55,1.99-2.55
	h58.95c15.87,0,28.24,4.35,37.13,13.04c8.88,8.69,13.32,21.35,13.32,37.98v35.71c0,15.3-4.39,27.59-13.18,36.84
	c-8.79,9.26-21.21,13.89-37.27,13.89h-23.8v47.05c0,1.7-0.85,2.55-2.55,2.55h-32.59C743.75,479.69,743.09,478.84,743.09,477.14z
	 M780.22,392.97h8.22c3.97,0,7.7-0.23,11.19-0.71c3.49-0.47,6.56-1.51,9.21-3.12c2.64-1.6,4.72-3.83,6.23-6.66
	c1.51-2.83,2.27-6.7,2.27-11.62v-18.7c0-4.91-0.57-8.78-1.7-11.62c-1.13-2.83-2.88-5-5.24-6.52c-2.36-1.51-5.39-2.46-9.07-2.84
	c-3.68-0.38-7.98-0.57-12.89-0.57h-8.22V392.97z M929.17,237.14V531.4H70.83V237.14H929.17z M198.41,328.54H151.8
	c-16.39,0-29.67,13.28-29.67,29.67V506.4h25.19v-41.03h51.1v-25.19h-51.1v-81.97c0-2.47,2.01-4.49,4.49-4.49h46.62V328.54z
	 M311.89,440.19h-63.1v-39.75h-25.28l0.09,64.93h88.29V440.19z M362.9,378.82c0-23.72-8.24-44.88-23.35-59.53
	c-7.79-7.51-10.44-21.16-10.72-28.03l0.37-28.57l-25.19-0.37l-0.18,15.75l-18.41-0.18c-20.51,0-23.54-9.25-23.9-15.39h-25.28
	c0.73,11.26,5.04,21.16,12.36,28.21l2.93,2.84l-3.57,1.92l-24.45,14.29v53.21l12.27,0.37c-0.09-0.09,29.67,1.28,49.36,35.17
	c14.01,24,37.18,27.38,49.55,27.48l3.02-0.09v80.41h25.19V378.82z M901.32,264.89H419.77v238.67h481.55V264.89z M321.96,337.43
	c10.07,9.8,15.75,24.91,15.75,41.4v21.89l-2.93,0.09h-1.1c-8.43,0-19.6-2.75-26.65-15.11c-16.94-28.94-39.84-40.39-56.05-44.97
	l-2.2-0.64v-15.84l35.9-20.88h20.24l0.55,2.38C307.49,314.81,311.98,327.72,321.96,337.43z"/>
</svg>
