<?xml version="1.0" encoding="utf-8"?>
<!-- Generator: Adobe Illustrator 23.0.3, SVG Export Plug-In . SVG Version: 6.00 Build 0)  -->
<svg version="1.1" id="Layer_1" xmlns="http://www.w3.org/2000/svg" xmlns:xlink="http://www.w3.org/1999/xlink" x="0px" y="0px"
	 viewBox="0 0 1000 1000" style="enable-background:new 0 0 1000 1000;" xml:space="preserve">
<style type="text/css">
	.st0{fill:#645A55;}
	.st1{fill:#AF6E23;}
	.st2{fill:#F5F0E6;}
	.st3{fill:#FFFFFF;}
</style>
<path class="st1" d="M631.19,617.83c-19.97,2.96-39.97,8.16-59.96,13.73c-0.62,0.17-1.24,0.47-1.93,0.74c0,61.41,0,91.97,0,153.24
	c13.75-3.86,27.31-7.35,41.13-10.35c0-13.92,0-9.55,0-23.68c1.49-0.32,2.5-0.53,3.5-0.75c6.85-1.51,13.7-2.71,20.54-4.11
	c25.32-5.19,45.21-21.54,52.32-45.94c3.53-11.81,4.16-19.64,2.89-30.91c-0.63-9.02-2.89-17.72-6.99-25.69
	C672.01,623.38,654.28,614.42,631.19,617.83z M648.73,672.83c0.92,5.8,0.75,11.55-0.45,16.37c-2.49,10.05-9.8,17.12-19.89,19.61
	c-5.79,1.43-11.64,2.26-17.81,3.6c0-21.28,0-29.82,0-51.34c7.99-1.48,15.96-4.2,23.71-3.16
	C642.72,659.04,647.44,664.72,648.73,672.83z M367.31,725.91c0,11.79,0,23.21,0,34.94c14.24-1.8,28.52-4.42,43.08-7.69
	c0,12.21,0,23.92,0,35.97c-14.4,3.24-28.68,5.88-43.23,7.71c0,24.6,0,18.16,0,42.59c-13.72,1.73-27.17,2.68-40.79,2.68
	c0-61.16,0-91.53,0-152.77c33,0,65.87-5.65,98.88-13.93c0,13.07,0,25.98,0,39.26C406.01,719.5,386.75,723.45,367.31,725.91z
	 M546.21,752.9c0,13.13,0,26.1,0,39.24c-32.16,9.74-64.32,20.61-96.7,29.78c0-61.23,0-91.78,0-153.24
	c13.5-3.83,27.05-7.97,40.96-12.33c0,48.12,0,65.53,0,114.01C509.35,764.44,527.66,758.52,546.21,752.9z M247.92,924.67h16.47
	c145.3,0,224.99-28.89,295.3-54.37c55.8-20.23,104-37.7,175.91-37.7h16.47V238.8H247.92V924.67z M280.86,271.74h438.27v528.2
	c-68.93,2.49-118.46,20.45-170.67,39.37c-65.04,23.58-138.43,50.18-267.61,52.27V271.74z M253.13,125.22h-5.76v-37.7h19.4v5.28
	h-13.64v10.55h10.73v5.4h-10.73V125.22z M301.38,114.61h5.03l4.85,10.61h6.06l-5.27-11.34l1.09-0.55c1.49-0.69,2.57-1.83,3.21-3.42
	c0.65-1.6,0.97-3.26,0.97-5v-7.64c0-2.91-0.85-5.26-2.55-7.06c-1.7-1.8-4.08-2.7-7.15-2.7h-11.94v37.7h5.7V114.61z M301.38,93.27
	h4.79c3.64,0,5.45,1.94,5.45,5.82v3.94c0,0.89-0.1,1.78-0.3,2.67c-0.2,0.89-0.71,1.64-1.52,2.24c-0.57,0.44-1.2,0.73-1.91,0.85
	c-0.71,0.12-1.57,0.18-2.58,0.18h-3.94V93.27z M354.12,125.22h-5.7v-37.7h5.7V125.22z M385.85,119.61c-0.59-1.47-0.88-3.24-0.88-5.3
	V98.37c0-2.18,0.31-4.01,0.94-5.49s1.51-2.65,2.64-3.52c1.13-0.87,2.47-1.48,4.03-1.85c1.56-0.36,3.28-0.54,5.18-0.54
	c2.02,0,3.82,0.2,5.39,0.61c1.58,0.41,2.9,1.06,3.97,1.97c1.07,0.91,1.89,2.08,2.45,3.51c0.57,1.44,0.85,3.2,0.85,5.3v0.67h-5.76
	v-0.18c0-1.13-0.17-2.08-0.52-2.85c-0.34-0.77-0.82-1.39-1.42-1.88c-0.61-0.49-1.31-0.83-2.12-1.03c-0.81-0.2-1.66-0.3-2.55-0.3
	h-0.73c-2.3,0-4.02,0.75-5.15,2.24c-0.45,0.65-0.79,1.39-1.03,2.24c-0.24,0.85-0.36,1.88-0.36,3.09v12c0,2.47,0.56,4.34,1.67,5.64
	c1.11,1.29,2.74,1.94,4.88,1.94h0.73c2.26,0,3.93-0.69,5-2.06c1.07-1.37,1.61-3.21,1.61-5.52v-1.7h-6.91v-5.27h12.67v8.91
	c0,2.26-0.33,4.13-1,5.61c-0.67,1.48-1.58,2.66-2.73,3.55c-1.15,0.89-2.5,1.5-4.03,1.85c-1.54,0.34-3.17,0.51-4.91,0.51
	c-1.98,0-3.76-0.21-5.34-0.64c-1.58-0.42-2.92-1.09-4.03-2C387.29,122.28,386.44,121.09,385.85,119.61z M443.74,123.19
	c1.07,0.91,2.4,1.58,4,2c1.6,0.42,3.43,0.64,5.49,0.64c2.02,0,3.82-0.19,5.39-0.58c1.58-0.38,2.9-1.03,3.97-1.94
	c1.07-0.91,1.89-2.1,2.46-3.58c0.57-1.48,0.85-3.28,0.85-5.42V98.37c0-4.16-1.08-7.1-3.24-8.82c-2.16-1.72-5.3-2.58-9.42-2.58
	c-2.06,0-3.89,0.18-5.49,0.54c-1.6,0.37-2.93,0.99-4,1.88c-1.07,0.89-1.89,2.06-2.45,3.51c-0.57,1.45-0.85,3.27-0.85,5.46v15.94
	c0,2.1,0.28,3.88,0.85,5.33C441.85,121.1,442.67,122.28,443.74,123.19z M446.26,100.37c0-2.3,0.49-4.14,1.48-5.52
	c0.99-1.37,2.68-2.06,5.06-2.06h0.73c2.14,0,3.78,0.63,4.91,1.88c1.13,1.25,1.7,3.15,1.7,5.7v12c0,1.13-0.1,2.16-0.3,3.09
	c-0.2,0.93-0.57,1.73-1.09,2.39c-0.53,0.67-1.21,1.18-2.06,1.54c-0.85,0.36-1.9,0.55-3.15,0.55h-0.73c-2.26,0-3.92-0.65-4.97-1.94
	c-1.05-1.29-1.58-3.17-1.58-5.64V100.37z M502.63,114.61h5.03l4.85,10.61h6.06l-5.27-11.34l1.09-0.55c1.49-0.69,2.57-1.83,3.21-3.42
	c0.65-1.6,0.97-3.26,0.97-5v-7.64c0-2.91-0.85-5.26-2.55-7.06c-1.7-1.8-4.08-2.7-7.15-2.7h-11.94v37.7h5.7V114.61z M502.63,93.27
	h4.79c3.64,0,5.45,1.94,5.45,5.82v3.94c0,0.89-0.1,1.78-0.3,2.67c-0.2,0.89-0.71,1.64-1.52,2.24c-0.57,0.44-1.2,0.73-1.91,0.85
	c-0.71,0.12-1.57,0.18-2.58,0.18h-3.94V93.27z M553.49,78.97h-1.27l0.73-3.64h3.15c-0.97,1.37-1.63,2.3-1.97,2.79
	C553.78,78.6,553.57,78.89,553.49,78.97z M555.37,125.22h-5.7v-37.7h5.7V125.22z M592.71,125.22h-5.76v-37.7h19.4v5.28h-13.64v10.55
	h10.73v5.4h-10.73V125.22z M640.96,125.22h-5.7v-37.7h5.7V125.22z M675.08,123.19c-2.18-1.76-3.27-4.72-3.27-8.88V98.37
	c0-2.1,0.29-3.88,0.88-5.33c0.58-1.45,1.42-2.64,2.52-3.55c1.09-0.91,2.43-1.56,4-1.94c1.58-0.38,3.37-0.58,5.39-0.58
	c4.24,0,7.41,0.88,9.52,2.64c2.1,1.76,3.15,4.68,3.15,8.76v0.67h-5.76v-0.36c0-1.09-0.18-2.01-0.55-2.76
	c-0.36-0.75-0.86-1.35-1.48-1.82c-0.63-0.46-1.33-0.8-2.12-1c-0.79-0.2-1.61-0.3-2.45-0.3h-0.73c-2.3,0-4.02,0.75-5.15,2.24
	c-0.45,0.65-0.79,1.39-1.03,2.24c-0.24,0.85-0.36,1.88-0.36,3.09v12c0,2.71,0.71,4.73,2.12,6.06c1.21,1.01,2.69,1.52,4.42,1.52h0.73
	c1.05,0,2.03-0.19,2.94-0.58c0.91-0.38,1.67-0.96,2.27-1.73c0.53-0.69,0.9-1.48,1.12-2.36c0.22-0.89,0.33-1.86,0.33-2.91v-1.27h5.7
	v3.21c0,2.14-0.29,3.95-0.88,5.42s-1.42,2.67-2.51,3.58c-1.09,0.91-2.42,1.56-3.97,1.94c-1.56,0.38-3.33,0.58-5.31,0.58
	C680.44,125.82,677.27,124.95,675.08,123.19z M749.43,89.55c-2.16-1.72-5.3-2.58-9.42-2.58c-2.06,0-3.89,0.18-5.49,0.54
	c-1.6,0.37-2.93,0.99-4,1.88c-1.07,0.89-1.89,2.06-2.45,3.51c-0.57,1.45-0.85,3.27-0.85,5.46v15.94c0,2.1,0.28,3.88,0.85,5.33
	c0.57,1.45,1.38,2.64,2.45,3.55c1.07,0.91,2.4,1.58,4,2c1.6,0.42,3.42,0.64,5.49,0.64c2.02,0,3.82-0.19,5.39-0.58
	c1.58-0.38,2.9-1.03,3.97-1.94c1.07-0.91,1.89-2.1,2.46-3.58c0.57-1.48,0.85-3.28,0.85-5.42V98.37
	C752.67,94.2,751.59,91.26,749.43,89.55z M746.92,112.37c0,1.13-0.1,2.16-0.3,3.09c-0.2,0.93-0.57,1.73-1.09,2.39
	c-0.52,0.67-1.21,1.18-2.06,1.54c-0.85,0.36-1.9,0.55-3.15,0.55h-0.73c-2.26,0-3.92-0.65-4.97-1.94c-1.05-1.29-1.58-3.17-1.58-5.64
	v-12c0-2.3,0.49-4.14,1.49-5.52c0.99-1.37,2.68-2.06,5.06-2.06h0.73c2.14,0,3.78,0.63,4.91,1.88c1.13,1.25,1.7,3.15,1.7,5.7V112.37z
	 M248.06,208.15c-0.49,0-0.73-0.28-0.73-0.82v-58.69c0-0.55,0.24-0.82,0.73-0.82h10.42c0.55,0,0.83,0.28,0.83,0.83v48.08h19.74
	c0.55,0,0.82,0.28,0.82,0.82v9.8c0,0.55-0.27,0.82-0.82,0.82H248.06z M289.1,208.15h10.51c0.3,0,0.51-0.18,0.64-0.55l3.47-12.8
	h13.35l3.56,12.8c0.06,0.36,0.28,0.55,0.64,0.55h10.43c0.67,0,0.94-0.33,0.82-1l-15.82-58.78c-0.12-0.37-0.33-0.55-0.64-0.55h-11.33
	c-0.31,0-0.52,0.18-0.64,0.55l-15.81,58.78C288.16,207.82,288.43,208.15,289.1,208.15z M310.31,169.58l3.93,13.8h-7.59
	L310.31,169.58z M346.51,176.06c-3.72-3.47-5.57-7.44-5.57-11.89c0-2.87,0.59-5.36,1.78-7.49c1.19-2.14,2.76-3.91,4.71-5.35
	c1.95-1.43,4.14-2.51,6.58-3.24c2.44-0.73,4.9-1.1,7.4-1.1c7.86,0,13.71,4.08,17.55,12.25c0.18,0.43,0.09,0.76-0.28,1l-8.14,5.67
	c-0.31,0.18-0.61,0.09-0.92-0.27c-1.58-2.26-3.1-3.91-4.57-4.99c-1.46-1.07-3.1-1.6-4.93-1.6c-0.49,0-1.1,0.06-1.83,0.18
	c-0.73,0.12-1.43,0.33-2.1,0.64c-0.67,0.31-1.25,0.72-1.74,1.23c-0.49,0.52-0.73,1.21-0.73,2.06c0,1.03,0.41,1.95,1.24,2.74
	c0.82,0.8,1.83,1.51,3.02,2.15c1.19,0.64,2.42,1.21,3.7,1.69c1.28,0.49,2.38,0.95,3.29,1.37c1.71,0.86,3.5,1.81,5.39,2.88
	c1.89,1.07,3.62,2.33,5.21,3.8c1.59,1.46,2.88,3.11,3.88,4.93c1.01,1.83,1.51,3.93,1.51,6.31c0,0.68-0.05,1.5-0.14,2.47
	c-0.09,0.98-0.26,2.03-0.5,3.16c-0.24,1.13-0.59,2.28-1.05,3.47c-0.46,1.19-1.05,2.33-1.78,3.43c-3.35,5-8.68,7.5-15.99,7.5
	c-1.96,0-3.93-0.24-5.94-0.73c-2.01-0.49-3.92-1.23-5.71-2.24c-1.8-1-3.4-2.27-4.8-3.79c-1.4-1.52-2.47-3.35-3.2-5.49
	c-0.13-0.31-0.03-0.55,0.27-0.73l8.41-7.22c0.49-0.36,0.88-0.3,1.19,0.18c0.13,0.24,0.26,0.54,0.42,0.87
	c0.15,0.34,0.35,0.75,0.59,1.24c0.67,1.4,1.77,2.69,3.29,3.88c1.52,1.19,3.2,1.78,5.03,1.78c0.73,0,1.48-0.1,2.24-0.32
	c0.76-0.21,1.48-0.55,2.15-1c0.67-0.46,1.22-1.07,1.64-1.83c0.43-0.76,0.64-1.69,0.64-2.79c0-1.03-0.32-1.98-0.96-2.83
	c-0.64-0.85-1.44-1.6-2.38-2.24c-0.94-0.64-1.95-1.19-3.02-1.64s-2.05-0.87-2.97-1.24c-2.08-0.85-4.13-1.81-6.17-2.88
	C350.18,178.98,348.28,177.65,346.51,176.06z M429.52,208.15h10.51c0.55,0,0.82-0.28,0.82-0.82v-15.18h7.68
	c5.18,0,9.19-1.49,12.02-4.48c2.83-2.98,4.25-6.95,4.25-11.89v-11.52c0-5.36-1.43-9.45-4.29-12.25c-2.87-2.8-6.85-4.21-11.98-4.21
	h-19.01c-0.43,0-0.64,0.28-0.64,0.82v58.69C428.88,207.88,429.09,208.15,429.52,208.15z M440.85,160.07h2.65
	c1.59,0,2.97,0.06,4.16,0.18c1.19,0.12,2.16,0.43,2.93,0.92c0.76,0.49,1.32,1.19,1.69,2.1c0.36,0.92,0.55,2.17,0.55,3.75v6.04
	c0,1.59-0.24,2.83-0.73,3.75c-0.49,0.91-1.16,1.63-2.01,2.15c-0.85,0.51-1.85,0.85-2.97,1c-1.13,0.15-2.33,0.23-3.61,0.23h-2.65
	V160.07z M477.69,207.33v-58.69c0-0.55,0.24-0.82,0.73-0.82h10.42c0.55,0,0.83,0.28,0.83,0.82v58.69c0,0.55-0.28,0.82-0.83,0.82
	h-10.42C477.94,208.15,477.69,207.88,477.69,207.33z M507.22,147.82h31.08c0.55,0,0.82,0.28,0.82,0.82v9.79
	c0,0.55-0.28,0.82-0.82,0.82h-19.75v12.43h15.36c0.49,0,0.73,0.28,0.73,0.82v9.97c0,0.55-0.24,0.82-0.73,0.82h-15.36v13.44h19.75
	c0.55,0,0.82,0.28,0.82,0.83v9.78c0,0.55-0.28,0.82-0.82,0.82h-31.08c-0.49,0-0.73-0.28-0.73-0.82v-58.69
	C506.49,148.09,506.73,147.82,507.22,147.82z M554.57,148.64v58.69c0,0.55,0.24,0.82,0.73,0.82h22.85c5.91,0,10.4-1.61,13.48-4.85
	c3.08-3.23,4.62-7.62,4.62-13.17v-24.22c0-5.61-1.37-9.93-4.11-12.98c-3.11-3.42-7.77-5.12-13.99-5.12h-22.85
	C554.82,147.82,554.57,148.09,554.57,148.64z M566.64,159.24h8.23c3.23,0,5.61,0.84,7.13,2.51c1.52,1.68,2.29,3.98,2.29,6.9v18.74
	c0,2.93-0.88,5.21-2.65,6.86c-1.77,1.64-4.02,2.46-6.77,2.46h-8.23V159.24z M612.9,208.15h10.51c0.55,0,0.82-0.28,0.82-0.82v-15.18
	h4.66l7.13,15.54c0.12,0.31,0.33,0.46,0.64,0.46h11.25c0.3,0,0.51-0.1,0.64-0.32c0.12-0.21,0.12-0.47,0-0.77l-7.68-16.91
	c2.44-1.15,4.33-3.1,5.67-5.85c0.55-1.15,0.96-2.46,1.23-3.93c0.28-1.46,0.41-2.98,0.41-4.57v-11.52c0-5.36-1.43-9.45-4.29-12.25
	s-6.85-4.21-11.98-4.21H612.9c-0.43,0-0.64,0.28-0.64,0.82v58.69C612.26,207.88,612.47,208.15,612.9,208.15z M624.23,159.98h2.65
	c1.7,0,3.15,0.06,4.34,0.18c1.19,0.12,2.15,0.43,2.88,0.91c0.73,0.49,1.26,1.21,1.6,2.15c0.33,0.95,0.5,2.21,0.5,3.79v5.94
	c-0.06,1.77-0.3,3.14-0.73,4.11c-0.43,0.98-1.04,1.7-1.83,2.15c-0.79,0.46-1.75,0.73-2.88,0.83c-1.13,0.09-2.42,0.14-3.88,0.14
	h-2.65V159.98z M660.8,208.15h10.51c0.31,0,0.52-0.18,0.64-0.55l3.47-12.8h13.35l3.57,12.8c0.06,0.36,0.28,0.55,0.64,0.55h10.42
	c0.67,0,0.95-0.33,0.82-1l-15.81-58.78c-0.13-0.37-0.34-0.55-0.64-0.55h-11.34c-0.31,0-0.52,0.18-0.64,0.55l-15.82,58.78
	C659.85,207.82,660.13,208.15,660.8,208.15z M682.01,169.58l3.93,13.8h-7.59L682.01,169.58z M751.17,182.74
	c1,1.83,1.51,3.93,1.51,6.31c0,0.68-0.05,1.5-0.14,2.47c-0.09,0.98-0.26,2.03-0.5,3.16c-0.24,1.13-0.59,2.28-1.05,3.47
	c-0.46,1.19-1.05,2.33-1.78,3.43c-3.35,5-8.68,7.5-16,7.5c-1.95,0-3.93-0.24-5.94-0.73c-2.01-0.49-3.92-1.23-5.71-2.24
	c-1.8-1-3.4-2.27-4.8-3.79c-1.4-1.52-2.46-3.35-3.2-5.49c-0.12-0.31-0.03-0.55,0.28-0.73l8.41-7.22c0.49-0.36,0.88-0.3,1.19,0.18
	c0.12,0.24,0.26,0.54,0.41,0.87c0.15,0.34,0.35,0.75,0.59,1.24c0.67,1.4,1.77,2.69,3.29,3.88c1.52,1.19,3.2,1.78,5.03,1.78
	c0.73,0,1.48-0.1,2.24-0.32c0.76-0.21,1.48-0.55,2.15-1s1.22-1.07,1.65-1.83c0.43-0.76,0.64-1.69,0.64-2.79
	c0-1.03-0.32-1.98-0.96-2.83c-0.64-0.85-1.43-1.6-2.38-2.24c-0.95-0.64-1.95-1.19-3.02-1.64c-1.07-0.46-2.06-0.87-2.97-1.24
	c-2.07-0.85-4.13-1.81-6.17-2.88c-2.04-1.07-3.95-2.39-5.71-3.98c-3.72-3.47-5.58-7.44-5.58-11.89c0-2.87,0.6-5.36,1.78-7.49
	c1.19-2.14,2.76-3.91,4.71-5.35c1.95-1.43,4.14-2.51,6.58-3.24c2.44-0.73,4.91-1.1,7.41-1.1c7.86,0,13.71,4.08,17.55,12.25
	c0.18,0.43,0.09,0.76-0.27,1l-8.14,5.67c-0.31,0.18-0.61,0.09-0.92-0.27c-1.59-2.26-3.11-3.91-4.57-4.99
	c-1.46-1.07-3.11-1.6-4.94-1.6c-0.49,0-1.1,0.06-1.82,0.18c-0.73,0.12-1.44,0.33-2.11,0.64c-0.67,0.31-1.25,0.72-1.74,1.23
	c-0.49,0.52-0.73,1.21-0.73,2.06c0,1.03,0.41,1.95,1.23,2.74c0.82,0.8,1.83,1.51,3.02,2.15c1.19,0.64,2.42,1.21,3.7,1.69
	c1.28,0.49,2.38,0.95,3.29,1.37c1.71,0.86,3.5,1.81,5.4,2.88c1.89,1.07,3.62,2.33,5.21,3.8
	C748.86,179.26,750.16,180.91,751.17,182.74z M638.24,384.57c-11.11-10.83-14.91-30.4-15.38-40.25l0.58-40.94l-36.16-0.52
	l-0.29,22.52l-26.37-0.17c-29.43,0-33.69-13.36-34.32-22.05h-36.16c0.98,16.07,7.14,30.35,17.68,40.42l4.26,4.03l-5.07,2.82
	l-35.13,20.44v76.36l17.56,0.46c-0.12-0.12,42.61,1.9,70.77,50.44c20.1,34.32,53.32,39.27,71.06,39.33l4.32-0.06v62.08
	c13.82-1.38,25.97,1.09,36.16,7.37V469.91C671.76,435.88,659.84,405.59,638.24,384.57z M635.59,501.3l-4.2,0.12h-1.5
	c-12.15,0-28.16-3.92-38.35-21.65c-24.19-41.46-57.07-57.99-80.33-64.55l-3.17-0.86V391.6l51.54-29.94h29.02l0.75,3.4
	c2.88,13.07,9.39,31.56,23.72,45.49c14.34,13.99,22.51,35.64,22.51,59.37V501.3z M362.62,440.38v117.5h73.21v36.13h-73.21v58.75
	h-36.13V440.38c0-23.52,19.1-42.66,42.61-42.66h66.78v36.18H369.1C365.54,433.9,362.62,436.82,362.62,440.38z M598.52,557.88v36.13
	H472.01l-0.13-93.12h36.18v56.99H598.52z"/>
</svg>
