<?xml version="1.0" encoding="utf-8"?>
<!-- Generator: Adobe Illustrator 23.0.3, SVG Export Plug-In . SVG Version: 6.00 Build 0)  -->
<svg version="1.1" id="Layer_1" xmlns="http://www.w3.org/2000/svg" xmlns:xlink="http://www.w3.org/1999/xlink" x="0px" y="0px"
	 viewBox="0 0 1000 300" style="enable-background:new 0 0 1000 300;" xml:space="preserve">
<style type="text/css">
	.st0{fill:#645A55;}
	.st1{fill:#AF6E23;}
	.st2{fill:#F5F0E6;}
	.st3{fill:#FFFFFF;}
</style>
<g>
	<g>
		<g>
			<polygon class="st1" points="501.93,121.55 510.78,121.55 510.78,117.1 501.93,117.1 501.93,108.4 513.18,108.4 513.18,104.05 
				497.18,104.05 497.18,135.15 501.93,135.15 			"/>
			<path class="st1" d="M541.73,126.4h4.15l4,8.75h5l-4.35-9.35l0.9-0.45c1.23-0.57,2.12-1.51,2.65-2.82
				c0.53-1.32,0.8-2.69,0.8-4.12v-6.3c0-2.4-0.7-4.34-2.1-5.82c-1.4-1.48-3.37-2.23-5.9-2.23h-9.85v31.1h4.7V126.4z M541.73,108.8
				h3.95c3,0,4.5,1.6,4.5,4.8v3.25c0,0.73-0.08,1.47-0.25,2.2c-0.17,0.73-0.58,1.35-1.25,1.85c-0.47,0.37-0.99,0.6-1.57,0.7
				c-0.58,0.1-1.29,0.15-2.13,0.15h-3.25V108.8z"/>
			<rect x="580.52" y="104.05" class="st1" width="4.7" height="31.1"/>
			<path class="st1" d="M628.94,105.73c-0.88-0.75-1.97-1.29-3.27-1.63c-1.3-0.33-2.78-0.5-4.45-0.5c-1.57,0-2.99,0.15-4.27,0.45
				c-1.28,0.3-2.39,0.81-3.32,1.53c-0.93,0.72-1.66,1.68-2.17,2.9c-0.52,1.22-0.77,2.73-0.77,4.52v13.15c0,1.7,0.24,3.16,0.72,4.37
				c0.48,1.22,1.18,2.2,2.1,2.95c0.92,0.75,2.02,1.3,3.32,1.65c1.3,0.35,2.77,0.52,4.4,0.52c1.43,0,2.78-0.14,4.05-0.42
				c1.27-0.28,2.37-0.79,3.32-1.52c0.95-0.73,1.7-1.71,2.25-2.92c0.55-1.22,0.83-2.76,0.83-4.62v-7.35h-10.45v4.35h5.7v1.4
				c0,1.9-0.44,3.42-1.32,4.55c-0.88,1.13-2.26,1.7-4.12,1.7h-0.6c-1.77,0-3.11-0.53-4.02-1.6c-0.92-1.07-1.38-2.62-1.38-4.65v-9.9
				c0-1,0.1-1.85,0.3-2.55c0.2-0.7,0.48-1.32,0.85-1.85c0.93-1.23,2.35-1.85,4.25-1.85h0.6c0.73,0,1.43,0.08,2.1,0.25
				c0.67,0.17,1.25,0.45,1.75,0.85c0.5,0.4,0.89,0.92,1.18,1.55c0.28,0.63,0.42,1.42,0.42,2.35v0.15h4.75V113
				c0-1.73-0.23-3.19-0.7-4.38C630.49,107.44,629.82,106.48,628.94,105.73z"/>
			<path class="st1" d="M666.96,103.6c-1.7,0-3.21,0.15-4.52,0.45c-1.32,0.3-2.42,0.82-3.3,1.55c-0.88,0.73-1.56,1.7-2.02,2.9
				c-0.47,1.2-0.7,2.7-0.7,4.5v13.15c0,1.73,0.23,3.2,0.7,4.4c0.47,1.2,1.14,2.17,2.02,2.92c0.88,0.75,1.98,1.3,3.3,1.65
				c1.32,0.35,2.82,0.52,4.52,0.52c1.67,0,3.15-0.16,4.45-0.47c1.3-0.32,2.39-0.85,3.27-1.6c0.88-0.75,1.56-1.73,2.02-2.95
				c0.47-1.22,0.7-2.71,0.7-4.47V113c0-3.43-0.89-5.86-2.67-7.27C672.95,104.31,670.36,103.6,666.96,103.6z M672.66,124.55
				c0,0.93-0.08,1.78-0.25,2.55c-0.17,0.77-0.47,1.42-0.9,1.97c-0.43,0.55-1,0.97-1.7,1.27c-0.7,0.3-1.57,0.45-2.6,0.45h-0.6
				c-1.87,0-3.23-0.53-4.1-1.6c-0.87-1.07-1.3-2.62-1.3-4.65v-9.9c0-1.9,0.41-3.42,1.22-4.55c0.82-1.13,2.21-1.7,4.17-1.7h0.6
				c1.77,0,3.12,0.52,4.05,1.55c0.93,1.03,1.4,2.6,1.4,4.7V124.55z"/>
			<path class="st1" d="M720.85,135.15l-4.35-9.35l0.9-0.45c1.23-0.57,2.12-1.51,2.65-2.82c0.53-1.32,0.8-2.69,0.8-4.12v-6.3
				c0-2.4-0.7-4.34-2.1-5.82c-1.4-1.48-3.37-2.23-5.9-2.23H703v31.1h4.7v-8.75h4.15l4,8.75H720.85z M713.07,121.6
				c-0.58,0.1-1.29,0.15-2.13,0.15h-3.25V108.8h3.95c3,0,4.5,1.6,4.5,4.8v3.25c0,0.73-0.08,1.47-0.25,2.2
				c-0.17,0.73-0.58,1.35-1.25,1.85C714.18,121.26,713.66,121.5,713.07,121.6z"/>
			<path class="st1" d="M750.17,96.3c0.28-0.4,0.82-1.17,1.62-2.3h-2.6l-0.6,3h1.05C749.71,96.94,749.88,96.7,750.17,96.3z"/>
			<rect x="746.49" y="104.05" class="st1" width="4.7" height="31.1"/>
			<polygon class="st1" points="777.24,135.15 781.99,135.15 781.99,121.55 790.84,121.55 790.84,117.1 781.99,117.1 781.99,108.4 
				793.24,108.4 793.24,104.05 777.24,104.05 			"/>
			<rect x="817.08" y="104.05" class="st1" width="4.7" height="31.1"/>
			<path class="st1" d="M857.78,135.65c1.63,0,3.09-0.16,4.37-0.47c1.28-0.32,2.37-0.85,3.27-1.6c0.9-0.75,1.59-1.73,2.07-2.95
				c0.48-1.22,0.73-2.71,0.73-4.47v-2.65h-4.7v1.05c0,0.87-0.09,1.67-0.27,2.4c-0.18,0.73-0.49,1.38-0.93,1.95
				c-0.5,0.63-1.12,1.11-1.87,1.42c-0.75,0.32-1.56,0.47-2.42,0.47h-0.6c-1.43,0-2.65-0.42-3.65-1.25c-1.17-1.1-1.75-2.77-1.75-5
				v-9.9c0-1,0.1-1.85,0.3-2.55c0.2-0.7,0.48-1.32,0.85-1.85c0.93-1.23,2.35-1.85,4.25-1.85h0.6c0.7,0,1.37,0.08,2.02,0.25
				c0.65,0.17,1.23,0.44,1.75,0.82c0.52,0.38,0.92,0.88,1.22,1.5c0.3,0.62,0.45,1.37,0.45,2.27v0.3h4.75V113
				c0-3.37-0.87-5.77-2.6-7.22c-1.73-1.45-4.35-2.17-7.85-2.17c-1.67,0-3.15,0.16-4.45,0.47c-1.3,0.32-2.4,0.85-3.3,1.6
				c-0.9,0.75-1.59,1.72-2.07,2.92c-0.48,1.2-0.72,2.67-0.72,4.4v13.15c0,3.43,0.9,5.87,2.7,7.32
				C851.73,134.92,854.34,135.65,857.78,135.65z"/>
			<path class="st1" d="M895.64,133.47c0.88,0.75,1.98,1.3,3.3,1.65c1.32,0.35,2.82,0.52,4.52,0.52c1.67,0,3.15-0.16,4.45-0.47
				c1.3-0.32,2.39-0.85,3.27-1.6c0.88-0.75,1.56-1.73,2.02-2.95c0.47-1.22,0.7-2.71,0.7-4.47V113c0-3.43-0.89-5.86-2.67-7.27
				c-1.78-1.42-4.37-2.13-7.77-2.13c-1.7,0-3.21,0.15-4.52,0.45c-1.32,0.3-2.42,0.82-3.3,1.55c-0.88,0.73-1.56,1.7-2.02,2.9
				c-0.47,1.2-0.7,2.7-0.7,4.5v13.15c0,1.73,0.23,3.2,0.7,4.4C894.09,131.75,894.76,132.72,895.64,133.47z M897.72,114.65
				c0-1.9,0.41-3.42,1.22-4.55c0.82-1.13,2.21-1.7,4.17-1.7h0.6c1.77,0,3.12,0.52,4.05,1.55c0.93,1.03,1.4,2.6,1.4,4.7v9.9
				c0,0.93-0.08,1.78-0.25,2.55c-0.17,0.77-0.47,1.42-0.9,1.97c-0.43,0.55-1,0.97-1.7,1.27c-0.7,0.3-1.57,0.45-2.6,0.45h-0.6
				c-1.87,0-3.23-0.53-4.1-1.6c-0.87-1.07-1.3-2.62-1.3-4.65V114.65z"/>
		</g>
		<g>
			<g>
				<path class="st1" d="M507.02,154.46v39.65h16.28c0.45,0,0.68,0.23,0.68,0.67v8.08c0,0.45-0.22,0.67-0.68,0.67h-25.56
					c-0.4,0-0.6-0.23-0.6-0.68v-48.41c0-0.45,0.2-0.68,0.6-0.68h8.59C506.8,153.78,507.02,154.01,507.02,154.46z"/>
				<path class="st1" d="M543.96,154.24c0.1-0.3,0.27-0.45,0.53-0.45h9.35c0.25,0,0.43,0.15,0.53,0.45l13.04,48.48
					c0.1,0.55-0.12,0.83-0.68,0.83h-8.6c-0.3,0-0.48-0.15-0.53-0.45l-2.94-10.56h-11.01l-2.86,10.56c-0.1,0.3-0.28,0.45-0.53,0.45
					h-8.67c-0.55,0-0.78-0.27-0.68-0.83L543.96,154.24z M552.33,183.11l-3.24-11.38l-3.02,11.38H552.33z"/>
				<path class="st1" d="M594.18,173.01c1.41,0.71,2.89,1.5,4.45,2.38c1.56,0.88,2.99,1.93,4.3,3.13c1.31,1.2,2.38,2.56,3.2,4.07
					c0.83,1.51,1.25,3.24,1.25,5.2c0,0.56-0.04,1.24-0.12,2.04c-0.07,0.81-0.21,1.67-0.42,2.6c-0.2,0.93-0.49,1.88-0.87,2.86
					c-0.38,0.98-0.87,1.92-1.47,2.83c-2.76,4.12-7.16,6.18-13.19,6.18c-1.61,0-3.24-0.2-4.9-0.6c-1.66-0.4-3.23-1.02-4.71-1.85
					c-1.48-0.83-2.8-1.87-3.96-3.13c-1.16-1.26-2.04-2.77-2.64-4.52c-0.1-0.25-0.03-0.45,0.22-0.6l6.94-5.96
					c0.4-0.3,0.73-0.25,0.98,0.15c0.1,0.2,0.21,0.44,0.34,0.72c0.12,0.28,0.29,0.62,0.49,1.02c0.55,1.16,1.46,2.22,2.71,3.2
					c1.26,0.98,2.64,1.47,4.15,1.47c0.6,0,1.22-0.09,1.85-0.27c0.63-0.18,1.22-0.45,1.77-0.83c0.55-0.38,1-0.88,1.36-1.51
					c0.35-0.63,0.53-1.39,0.53-2.3c0-0.85-0.26-1.63-0.79-2.34c-0.53-0.7-1.18-1.32-1.96-1.85c-0.78-0.53-1.61-0.98-2.49-1.36
					s-1.69-0.72-2.45-1.02c-1.71-0.7-3.4-1.49-5.09-2.37c-1.69-0.88-3.25-1.97-4.71-3.28c-3.07-2.86-4.6-6.13-4.6-9.8
					c0-2.36,0.49-4.42,1.47-6.18c0.98-1.76,2.27-3.23,3.88-4.41c1.61-1.18,3.42-2.07,5.43-2.68s4.04-0.9,6.11-0.9
					c6.48,0,11.31,3.37,14.48,10.1c0.15,0.35,0.07,0.63-0.23,0.83l-6.71,4.67c-0.25,0.15-0.5,0.08-0.75-0.22
					c-1.3-1.86-2.56-3.23-3.77-4.11c-1.2-0.88-2.56-1.32-4.07-1.32c-0.4,0-0.9,0.05-1.51,0.15c-0.6,0.1-1.18,0.27-1.73,0.53
					c-0.55,0.25-1.03,0.59-1.43,1.02c-0.4,0.43-0.6,0.99-0.6,1.7c0,0.85,0.34,1.61,1.02,2.26c0.68,0.66,1.51,1.24,2.49,1.77
					c0.98,0.53,2,0.99,3.05,1.4C592.52,172.28,593.42,172.66,594.18,173.01z"/>
				<path class="st1" d="M663.09,153.78c4.22,0,7.51,1.16,9.88,3.47c2.36,2.31,3.54,5.68,3.54,10.1v9.5c0,4.07-1.17,7.34-3.5,9.8
					c-2.34,2.46-5.64,3.69-9.91,3.69h-6.33v12.52c0,0.45-0.23,0.68-0.68,0.68h-8.67c-0.35,0-0.53-0.23-0.53-0.68v-48.41
					c0-0.45,0.18-0.68,0.53-0.68H663.09z M666.63,169.61c0-1.3-0.15-2.34-0.45-3.09c-0.3-0.75-0.77-1.33-1.39-1.73
					c-0.63-0.4-1.44-0.65-2.41-0.75c-0.98-0.1-2.12-0.15-3.43-0.15h-2.19v16.59h2.19c1.05,0,2.05-0.06,2.98-0.19s1.75-0.4,2.45-0.83
					c0.7-0.43,1.26-1.02,1.66-1.77c0.4-0.75,0.6-1.78,0.6-3.09V169.61z"/>
				<path class="st1" d="M687.13,202.87v-48.41c0-0.45,0.2-0.68,0.6-0.68h8.59c0.45,0,0.68,0.23,0.68,0.68v48.41
					c0,0.45-0.23,0.68-0.68,0.68h-8.59C687.34,203.54,687.13,203.32,687.13,202.87z"/>
				<path class="st1" d="M710.88,202.87v-48.41c0-0.45,0.2-0.68,0.6-0.68h25.63c0.45,0,0.68,0.23,0.68,0.68v8.07
					c0,0.45-0.23,0.68-0.68,0.68h-16.29v10.25h12.67c0.4,0,0.6,0.23,0.6,0.68v8.22c0,0.45-0.2,0.68-0.6,0.68h-12.67v11.08h16.29
					c0.45,0,0.68,0.23,0.68,0.68v8.07c0,0.45-0.23,0.68-0.68,0.68h-25.63C711.08,203.54,710.88,203.32,710.88,202.87z"/>
				<path class="st1" d="M769.99,153.78c5.13,0,8.97,1.41,11.54,4.22c2.26,2.51,3.39,6.08,3.39,10.7v19.98
					c0,4.58-1.27,8.19-3.81,10.86c-2.54,2.67-6.24,4-11.12,4h-18.85c-0.4,0-0.6-0.23-0.6-0.68v-48.41c0-0.45,0.2-0.68,0.6-0.68
					H769.99z M775.04,170.97c0-2.41-0.63-4.31-1.89-5.69c-1.26-1.38-3.22-2.07-5.88-2.07h-6.78v30.91h6.78
					c2.26,0,4.12-0.68,5.58-2.03c1.46-1.36,2.19-3.24,2.19-5.66V170.97z"/>
				<path class="st1" d="M826.39,183.86c-1.11,2.26-2.66,3.87-4.67,4.82l6.33,13.95c0.1,0.25,0.1,0.47,0,0.64
					c-0.1,0.18-0.28,0.27-0.53,0.27h-9.28c-0.25,0-0.43-0.12-0.53-0.38l-5.88-12.82h-3.85v12.52c0,0.45-0.23,0.68-0.68,0.68h-8.67
					c-0.35,0-0.53-0.23-0.53-0.68v-48.41c0-0.45,0.18-0.68,0.53-0.68h15.68c4.22,0,7.51,1.16,9.88,3.47
					c2.36,2.31,3.54,5.68,3.54,10.1v9.5c0,1.31-0.11,2.56-0.34,3.77C827.18,181.83,826.84,182.91,826.39,183.86z M817.86,169.61
					c0-1.3-0.14-2.35-0.41-3.13c-0.28-0.78-0.72-1.37-1.32-1.78c-0.6-0.4-1.39-0.65-2.38-0.75c-0.98-0.1-2.17-0.15-3.58-0.15h-2.19
					v16.66h2.19c1.21,0,2.27-0.04,3.2-0.11c0.93-0.08,1.72-0.3,2.38-0.68c0.65-0.37,1.15-0.96,1.51-1.77
					c0.35-0.8,0.55-1.93,0.6-3.39V169.61z"/>
				<path class="st1" d="M850.51,154.24c0.1-0.3,0.27-0.45,0.53-0.45h9.35c0.25,0,0.42,0.15,0.53,0.45l13.04,48.48
					c0.1,0.55-0.12,0.83-0.68,0.83h-8.59c-0.3,0-0.48-0.15-0.53-0.45l-2.94-10.56h-11.01l-2.86,10.56c-0.1,0.3-0.27,0.45-0.53,0.45
					h-8.67c-0.55,0-0.78-0.27-0.68-0.83L850.51,154.24z M858.88,183.11l-3.24-11.38l-3.01,11.38H858.88z"/>
				<path class="st1" d="M900.72,173.01c1.41,0.71,2.89,1.5,4.45,2.38c1.56,0.88,2.99,1.93,4.3,3.13c1.3,1.2,2.38,2.56,3.2,4.07
					c0.83,1.51,1.24,3.24,1.24,5.2c0,0.56-0.04,1.24-0.11,2.04c-0.08,0.81-0.21,1.67-0.42,2.6s-0.49,1.88-0.87,2.86
					c-0.38,0.98-0.87,1.92-1.47,2.83c-2.77,4.12-7.16,6.18-13.19,6.18c-1.61,0-3.24-0.2-4.9-0.6c-1.66-0.4-3.23-1.02-4.71-1.85
					c-1.48-0.83-2.8-1.87-3.96-3.13c-1.15-1.26-2.03-2.77-2.64-4.52c-0.1-0.25-0.03-0.45,0.23-0.6l6.93-5.96
					c0.4-0.3,0.73-0.25,0.98,0.15c0.1,0.2,0.21,0.44,0.34,0.72c0.12,0.28,0.29,0.62,0.49,1.02c0.55,1.16,1.46,2.22,2.71,3.2
					c1.26,0.98,2.64,1.47,4.15,1.47c0.6,0,1.22-0.09,1.85-0.27c0.63-0.18,1.22-0.45,1.77-0.83c0.55-0.38,1.01-0.88,1.36-1.51
					c0.35-0.63,0.53-1.39,0.53-2.3c0-0.85-0.27-1.63-0.79-2.34c-0.53-0.7-1.18-1.32-1.96-1.85s-1.61-0.98-2.49-1.36
					s-1.7-0.72-2.45-1.02c-1.71-0.7-3.4-1.49-5.09-2.37c-1.69-0.88-3.25-1.97-4.71-3.28c-3.07-2.86-4.6-6.13-4.6-9.8
					c0-2.36,0.49-4.42,1.47-6.18c0.98-1.76,2.27-3.23,3.89-4.41c1.61-1.18,3.42-2.07,5.42-2.68c2.01-0.6,4.05-0.9,6.11-0.9
					c6.48,0,11.31,3.37,14.47,10.1c0.15,0.35,0.08,0.63-0.22,0.83l-6.71,4.67c-0.25,0.15-0.51,0.08-0.75-0.22
					c-1.31-1.86-2.56-3.23-3.77-4.11c-1.21-0.88-2.56-1.32-4.07-1.32c-0.4,0-0.9,0.05-1.51,0.15c-0.6,0.1-1.18,0.27-1.74,0.53
					c-0.55,0.25-1.03,0.59-1.43,1.02c-0.4,0.43-0.6,0.99-0.6,1.7c0,0.85,0.34,1.61,1.02,2.26c0.68,0.66,1.51,1.24,2.49,1.77
					c0.98,0.53,2,0.99,3.05,1.4C899.06,172.28,899.97,172.66,900.72,173.01z"/>
			</g>
		</g>
	</g>
	<path class="st1" d="M264.9,192.58v-83.25c0-0.78,0.34-1.17,1.04-1.17h44.09c0.78,0,1.17,0.39,1.17,1.17v13.87
		c0,0.78-0.39,1.17-1.17,1.17h-28.01v17.63h21.78c0.69,0,1.04,0.39,1.04,1.17v14.13c0,0.78-0.35,1.17-1.04,1.17h-21.78v34.1
		c0,0.78-0.39,1.17-1.17,1.17h-14.91C265.24,193.75,264.9,193.36,264.9,192.58z M329.34,192.58v-83.25c0-0.78,0.34-1.17,1.04-1.17
		h14.78c0.78,0,1.17,0.39,1.17,1.17v68.2h28.01c0.78,0,1.17,0.39,1.17,1.16v13.9c0,0.77-0.39,1.16-1.17,1.16h-43.96
		C329.69,193.75,329.34,193.36,329.34,192.58z M394.56,193.75h14.91c0.78,0,1.17-0.39,1.17-1.17v-21.52h10.89
		c7.35,0,13.03-2.12,17.05-6.35c4.02-4.23,6.03-9.85,6.03-16.86v-16.34c0-7.61-2.03-13.4-6.09-17.38
		c-4.07-3.98-9.73-5.96-16.99-5.96h-26.97c-0.61,0-0.91,0.39-0.91,1.17v83.25C393.66,193.36,393.96,193.75,394.56,193.75z
		 M410.64,125.54h3.76c2.25,0,4.21,0.09,5.9,0.26c1.69,0.17,3.07,0.61,4.15,1.3c1.08,0.69,1.88,1.69,2.4,2.98
		c0.52,1.3,0.78,3.07,0.78,5.32v8.56c0,2.25-0.35,4.02-1.04,5.32c-0.69,1.3-1.64,2.31-2.85,3.05c-1.21,0.73-2.62,1.21-4.22,1.43
		c-1.6,0.22-3.31,0.32-5.12,0.32h-3.76V125.54z M86.08,82.77V217.4h392.71V82.77H86.08z M144.45,136.11h-21.33
		c-1.13,0-2.05,0.92-2.05,2.05v37.5h23.38v11.52h-23.38v18.77h-11.52v-67.8c0-7.5,6.08-13.58,13.58-13.58h21.33V136.11z
		 M196.37,187.19h-40.39l-0.04-29.71h11.56v18.19h28.87V187.19z M219.71,205.92h-11.52v-36.79l-1.38,0.04
		c-5.66-0.04-16.26-1.59-22.67-12.57c-9.01-15.5-22.63-16.13-22.59-16.09l-5.61-0.17V116l11.19-6.54l1.63-0.88l-1.34-1.3
		c-3.35-3.23-5.32-7.75-5.66-12.91h11.57c0.17,2.81,1.55,7.04,10.94,7.04l8.42,0.08l0.08-7.21l11.52,0.17l-0.17,13.07
		c0.13,3.14,1.34,9.39,4.9,12.82c6.91,6.7,10.68,16.38,10.68,27.24V205.92z M466.05,204.67H245.73V95.47h220.32V204.67z
		 M193.44,114.16l-0.25-1.09h-9.26l-16.43,9.55v7.25l1.01,0.29c7.42,2.1,17.89,7.33,25.64,20.57c3.23,5.66,8.34,6.91,12.19,6.91h0.5
		l1.34-0.04V147.6c0-7.54-2.6-14.46-7.21-18.94C196.41,124.21,194.36,118.31,193.44,114.16z"/>
</g>
</svg>
