<?xml version="1.0" encoding="utf-8"?>
<!-- Generator: Adobe Illustrator 23.0.3, SVG Export Plug-In . SVG Version: 6.00 Build 0)  -->
<svg version="1.1" id="Layer_1" xmlns="http://www.w3.org/2000/svg" xmlns:xlink="http://www.w3.org/1999/xlink" x="0px" y="0px"
	 viewBox="0 0 1000 1000" style="enable-background:new 0 0 1000 1000;" xml:space="preserve">
<style type="text/css">
	.st0{fill:#635A54;}
	.st1{fill:#635A54;}
	.st2{fill:#635A54;}
	.st3{fill:#635A54;}
</style>
<g>
	<g>
		<g>
			<g>
				<path class="st3" d="M837.2,273.9c-26.94-26.21-36.1-73.65-37.24-97.58l1.46-99.14l-87.69-1.25l-0.73,54.51l-63.87-0.42
					c-71.36,0-81.66-32.35-83.22-53.47h-87.59c2.29,39.01,17.27,73.55,42.86,97.99l10.19,9.78l-12.27,6.87L434,240.72v185.06
					l42.55,1.14c-0.21-0.21,103.3,4.58,171.64,122.23c48.68,83.32,129.2,95.29,172.16,95.39l10.51-0.1v279.52h87.59V480.81
					C918.44,398.31,889.63,324.87,837.2,273.9z M830.86,556.85l-10.19,0.31h-3.64c-29.44,0-68.24-9.47-92.89-52.43
					c-58.67-100.59-138.36-140.64-194.84-156.46l-7.59-2.18v-55.13l124.83-72.51h70.43l1.77,8.11
					c7.07,31.73,22.78,76.56,57.53,110.37c34.74,33.91,54.61,86.34,54.61,143.87V556.85z"/>
			</g>
			<g>
				<path class="st3" d="M169.15,409.24v284.82h177.47v87.59H169.15v142.41H81.56V409.24c0-57.01,46.29-103.4,103.3-103.4h161.87
					v87.69H184.85C176.22,393.53,169.15,400.6,169.15,409.24z"/>
			</g>
			<g>
				<polygon class="st3" points="740.98,694.06 740.98,781.65 434.31,781.65 434,555.91 521.69,555.91 521.69,694.06 				"/>
			</g>
		</g>
	</g>
</g>
</svg>
