<?xml version="1.0" encoding="utf-8"?>
<!-- Generator: Adobe Illustrator 23.0.3, SVG Export Plug-In . SVG Version: 6.00 Build 0)  -->
<svg version="1.1" id="Layer_1" xmlns="http://www.w3.org/2000/svg" xmlns:xlink="http://www.w3.org/1999/xlink" x="0px" y="0px"
	 viewBox="0 0 1000 800" style="enable-background:new 0 0 1000 800;" xml:space="preserve">
<style type="text/css">
	.st0{fill:#645A55;}
	.st1{fill:#AF6E23;}
	.st2{fill:#F5F0E6;}
	.st3{fill:#FFFFFF;}
</style>
<g>
	<g>
		<g>
			<g>
				<polygon class="st1" points="86.59,501.37 104.56,501.37 104.56,492.34 86.59,492.34 86.59,474.68 109.43,474.68 109.43,465.84 
					76.95,465.84 76.95,528.98 86.59,528.98 				"/>
				<path class="st1" d="M167.39,511.22h8.43l8.12,17.76h10.15L185.26,510l1.83-0.91c2.5-1.15,4.3-3.06,5.38-5.73
					c1.08-2.67,1.62-5.46,1.62-8.37v-12.79c0-4.87-1.42-8.81-4.26-11.83c-2.84-3.01-6.84-4.52-11.98-4.52h-20v63.14h9.54V511.22z
					 M167.39,475.49h8.02c6.09,0,9.14,3.25,9.14,9.75v6.6c0,1.49-0.17,2.98-0.51,4.47c-0.34,1.49-1.19,2.74-2.54,3.76
					c-0.95,0.74-2.01,1.22-3.2,1.42c-1.19,0.2-2.62,0.31-4.31,0.31h-6.6V475.49z"/>
				<rect x="246.16" y="465.84" class="st1" width="9.54" height="63.14"/>
				<path class="st1" d="M344.48,469.25c-1.79-1.52-4.01-2.62-6.65-3.3c-2.64-0.68-5.65-1.01-9.03-1.01c-3.18,0-6.07,0.3-8.68,0.91
					c-2.61,0.61-4.86,1.64-6.75,3.1c-1.89,1.46-3.37,3.42-4.42,5.89c-1.05,2.47-1.57,5.53-1.57,9.19v26.7
					c0,3.45,0.49,6.41,1.47,8.88c0.98,2.47,2.4,4.47,4.26,5.99c1.86,1.52,4.11,2.64,6.75,3.35c2.64,0.71,5.62,1.06,8.93,1.06
					c2.91,0,5.65-0.29,8.22-0.86c2.57-0.57,4.82-1.61,6.75-3.09c1.93-1.49,3.45-3.47,4.57-5.94c1.12-2.47,1.68-5.6,1.68-9.39v-14.92
					h-21.22v8.83h11.57v2.84c0,3.86-0.9,6.94-2.69,9.24c-1.8,2.3-4.59,3.45-8.38,3.45h-1.22c-3.59,0-6.31-1.08-8.17-3.25
					c-1.86-2.16-2.79-5.31-2.79-9.44v-20.1c0-2.03,0.2-3.76,0.61-5.18c0.41-1.42,0.98-2.67,1.73-3.76c1.89-2.5,4.77-3.76,8.63-3.76
					h1.22c1.49,0,2.91,0.17,4.26,0.51c1.35,0.34,2.54,0.91,3.55,1.72c1.02,0.81,1.81,1.86,2.39,3.15c0.57,1.29,0.86,2.88,0.86,4.77
					v0.3h9.64v-1.12c0-3.52-0.47-6.48-1.42-8.88C347.64,472.73,346.27,470.77,344.48,469.25z"/>
				<path class="st1" d="M421.67,464.93c-3.45,0-6.51,0.3-9.19,0.91c-2.67,0.61-4.91,1.66-6.7,3.15c-1.79,1.49-3.16,3.45-4.11,5.89
					c-0.95,2.44-1.42,5.48-1.42,9.14v26.7c0,3.52,0.47,6.5,1.42,8.93c0.95,2.44,2.32,4.41,4.11,5.94c1.79,1.52,4.03,2.64,6.7,3.35
					c2.67,0.71,5.74,1.06,9.19,1.06c3.38,0,6.39-0.32,9.03-0.96c2.64-0.64,4.86-1.72,6.65-3.25c1.79-1.52,3.16-3.52,4.11-5.99
					c0.95-2.47,1.42-5.5,1.42-9.08v-26.7c0-6.97-1.81-11.89-5.43-14.77C433.84,466.37,428.58,464.93,421.67,464.93z M433.25,507.46
					c0,1.89-0.17,3.62-0.51,5.18c-0.34,1.56-0.95,2.89-1.83,4.01c-0.88,1.12-2.03,1.98-3.45,2.59c-1.42,0.61-3.18,0.91-5.28,0.91
					h-1.22c-3.79,0-6.57-1.08-8.32-3.25c-1.76-2.16-2.64-5.31-2.64-9.44v-20.1c0-3.86,0.83-6.94,2.49-9.24
					c1.66-2.3,4.48-3.45,8.48-3.45h1.22c3.59,0,6.33,1.05,8.22,3.15c1.89,2.1,2.84,5.28,2.84,9.54V507.46z"/>
				<path class="st1" d="M531.1,528.98L522.27,510l1.83-0.91c2.5-1.15,4.3-3.06,5.38-5.73c1.08-2.67,1.62-5.46,1.62-8.37v-12.79
					c0-4.87-1.42-8.81-4.26-11.83c-2.84-3.01-6.84-4.52-11.98-4.52h-20v63.14h9.54v-17.76h8.43l8.12,17.76H531.1z M515.32,501.47
					c-1.19,0.2-2.62,0.31-4.31,0.31h-6.6v-26.29h8.02c6.09,0,9.14,3.25,9.14,9.75v6.6c0,1.49-0.17,2.98-0.51,4.47
					c-0.34,1.49-1.19,2.74-2.54,3.76C517.57,500.8,516.5,501.27,515.32,501.47z"/>
				<path class="st1" d="M590.64,450.11c0.57-0.81,1.67-2.37,3.3-4.67h-5.28l-1.22,6.09h2.13
					C589.71,451.4,590.06,450.92,590.64,450.11z"/>
				<rect x="583.18" y="465.84" class="st1" width="9.54" height="63.14"/>
				<polygon class="st1" points="645.6,528.98 655.25,528.98 655.25,501.37 673.21,501.37 673.21,492.34 655.25,492.34 
					655.25,474.68 678.09,474.68 678.09,465.84 645.6,465.84 				"/>
				<rect x="726.51" y="465.84" class="st1" width="9.54" height="63.14"/>
				<path class="st1" d="M809.14,530c3.31,0,6.28-0.32,8.88-0.96c2.6-0.64,4.82-1.72,6.65-3.25c1.83-1.52,3.23-3.52,4.21-5.99
					c0.98-2.47,1.47-5.5,1.47-9.08v-5.38h-9.54v2.13c0,1.76-0.19,3.39-0.56,4.87c-0.37,1.49-1,2.81-1.88,3.96
					c-1.01,1.29-2.28,2.25-3.81,2.89c-1.52,0.64-3.16,0.96-4.92,0.96h-1.22c-2.91,0-5.38-0.84-7.41-2.54
					c-2.37-2.23-3.55-5.62-3.55-10.15v-20.1c0-2.03,0.2-3.76,0.61-5.18c0.41-1.42,0.98-2.67,1.73-3.76c1.89-2.5,4.77-3.76,8.63-3.76
					h1.22c1.42,0,2.79,0.17,4.11,0.51s2.5,0.9,3.55,1.68c1.05,0.78,1.88,1.79,2.49,3.04c0.61,1.25,0.91,2.79,0.91,4.62v0.61h9.64
					v-1.12c0-6.84-1.76-11.72-5.28-14.67c-3.52-2.94-8.83-4.41-15.94-4.41c-3.39,0-6.4,0.32-9.04,0.96
					c-2.64,0.64-4.87,1.72-6.7,3.25c-1.83,1.52-3.23,3.5-4.21,5.94c-0.98,2.44-1.47,5.41-1.47,8.93v26.7
					c0,6.97,1.83,11.93,5.48,14.87C796.85,528.53,802.16,530,809.14,530z"/>
				<path class="st1" d="M886.03,525.58c1.79,1.52,4.02,2.64,6.7,3.35c2.67,0.71,5.73,1.06,9.19,1.06c3.38,0,6.39-0.32,9.03-0.96
					c2.64-0.64,4.86-1.72,6.65-3.25c1.79-1.52,3.16-3.52,4.11-5.99c0.95-2.47,1.42-5.5,1.42-9.08v-26.7
					c0-6.97-1.81-11.89-5.43-14.77c-3.62-2.88-8.88-4.31-15.78-4.31c-3.45,0-6.51,0.3-9.19,0.91c-2.67,0.61-4.91,1.66-6.7,3.15
					c-1.79,1.49-3.16,3.45-4.11,5.89c-0.95,2.44-1.42,5.48-1.42,9.14v26.7c0,3.52,0.47,6.5,1.42,8.93
					C882.87,522.08,884.24,524.06,886.03,525.58z M890.24,487.37c0-3.86,0.83-6.94,2.49-9.24c1.66-2.3,4.48-3.45,8.48-3.45h1.22
					c3.59,0,6.33,1.05,8.22,3.15c1.89,2.1,2.84,5.28,2.84,9.54v20.1c0,1.89-0.17,3.62-0.51,5.18c-0.34,1.56-0.95,2.89-1.83,4.01
					c-0.88,1.12-2.03,1.98-3.45,2.59c-1.42,0.61-3.18,0.91-5.28,0.91h-1.22c-3.79,0-6.57-1.08-8.32-3.25
					c-1.76-2.16-2.64-5.31-2.64-9.44V487.37z"/>
			</g>
			<g>
				<g>
					<path class="st1" d="M96.93,568.21v80.52h33.06c0.92,0,1.38,0.46,1.38,1.37v16.4c0,0.91-0.45,1.37-1.38,1.37H78.1
						c-0.82,0-1.23-0.46-1.23-1.38V568.2c0-0.91,0.41-1.38,1.23-1.38h17.45C96.47,566.82,96.93,567.29,96.93,568.21z"/>
					<path class="st1" d="M171.93,567.75c0.2-0.62,0.56-0.92,1.07-0.92h18.98c0.51,0,0.87,0.3,1.07,0.92l26.49,98.44
						c0.2,1.12-0.25,1.68-1.38,1.68h-17.46c-0.61,0-0.97-0.3-1.07-0.91l-5.96-21.44h-22.35l-5.82,21.44
						c-0.21,0.61-0.57,0.91-1.07,0.91h-17.61c-1.12,0-1.58-0.56-1.38-1.68L171.93,567.75z M188.93,626.37l-6.58-23.11l-6.13,23.11
						H188.93z"/>
					<path class="st1" d="M273.9,605.86c2.86,1.44,5.87,3.04,9.03,4.82c3.16,1.78,6.07,3.91,8.72,6.36c2.66,2.45,4.82,5.21,6.5,8.26
						c1.69,3.07,2.53,6.58,2.53,10.56c0,1.13-0.08,2.51-0.24,4.14c-0.15,1.64-0.44,3.4-0.84,5.29c-0.4,1.89-0.99,3.82-1.76,5.82
						c-0.77,1.99-1.76,3.9-2.99,5.74c-5.61,8.37-14.54,12.56-26.78,12.56c-3.27,0-6.58-0.41-9.95-1.23
						c-3.37-0.82-6.56-2.06-9.57-3.75c-3.01-1.68-5.69-3.8-8.04-6.35c-2.35-2.55-4.14-5.62-5.35-9.19
						c-0.21-0.51-0.05-0.92,0.45-1.23l14.09-12.09c0.82-0.61,1.48-0.51,1.99,0.3c0.21,0.41,0.44,0.9,0.7,1.45
						c0.25,0.57,0.58,1.25,0.99,2.07c1.12,2.35,2.96,4.51,5.51,6.5c2.55,1.99,5.36,2.99,8.42,2.99c1.22,0,2.47-0.17,3.75-0.54
						c1.27-0.36,2.47-0.91,3.6-1.68c1.12-0.77,2.04-1.79,2.75-3.07c0.71-1.27,1.07-2.83,1.07-4.67c0-1.73-0.53-3.32-1.6-4.75
						c-1.07-1.43-2.4-2.68-3.99-3.75c-1.58-1.07-3.27-1.99-5.05-2.75c-1.79-0.77-3.44-1.45-4.97-2.07
						c-3.47-1.43-6.91-3.03-10.34-4.82c-3.42-1.78-6.61-4.01-9.57-6.66c-6.23-5.82-9.33-12.45-9.33-19.9c0-4.8,0.99-8.98,2.99-12.55
						c1.99-3.58,4.61-6.56,7.88-8.96c3.27-2.39,6.94-4.21,11.02-5.43s8.21-1.84,12.4-1.84c13.17,0,22.96,6.84,29.4,20.51
						c0.3,0.71,0.15,1.28-0.46,1.68l-13.63,9.49c-0.51,0.3-1.02,0.16-1.53-0.45c-2.65-3.78-5.2-6.56-7.65-8.35
						c-2.45-1.78-5.2-2.67-8.26-2.67c-0.82,0-1.84,0.1-3.06,0.3c-1.22,0.2-2.39,0.56-3.52,1.07c-1.12,0.51-2.09,1.2-2.91,2.06
						c-0.82,0.87-1.23,2.02-1.23,3.45c0,1.73,0.69,3.27,2.07,4.59c1.38,1.33,3.06,2.53,5.05,3.6c1.99,1.08,4.06,2.02,6.2,2.84
						S272.36,605.15,273.9,605.86z"/>
					<path class="st1" d="M413.82,566.82c8.58,0,15.26,2.35,20.05,7.04s7.19,11.54,7.19,20.51v19.29c0,8.27-2.37,14.91-7.11,19.9
						s-11.46,7.5-20.13,7.5h-12.86v25.42c0,0.91-0.46,1.38-1.38,1.38h-17.61c-0.71,0-1.07-0.46-1.07-1.38V568.2
						c0-0.91,0.36-1.38,1.07-1.38H413.82z M421.01,598.97c0-2.65-0.3-4.75-0.91-6.28c-0.62-1.52-1.56-2.7-2.83-3.52
						c-1.28-0.82-2.92-1.32-4.9-1.53c-1.99-0.2-4.31-0.3-6.97-0.3h-4.44v33.68h4.44c2.14,0,4.15-0.13,6.04-0.38
						c1.89-0.25,3.55-0.82,4.98-1.68c1.43-0.87,2.55-2.07,3.37-3.6c0.81-1.53,1.22-3.62,1.22-6.28V598.97z"/>
					<path class="st1" d="M462.65,666.49V568.2c0-0.91,0.41-1.38,1.23-1.38h17.45c0.92,0,1.38,0.46,1.38,1.38v98.29
						c0,0.91-0.46,1.38-1.38,1.38h-17.45C463.05,667.86,462.65,667.4,462.65,666.49z"/>
					<path class="st1" d="M510.87,666.49V568.2c0-0.91,0.41-1.38,1.23-1.38h52.05c0.91,0,1.38,0.46,1.38,1.38v16.39
						c0,0.91-0.46,1.38-1.38,1.38h-33.07v20.82h25.72c0.82,0,1.23,0.46,1.23,1.38v16.69c0,0.91-0.41,1.38-1.23,1.38h-25.72v22.5
						h33.07c0.91,0,1.38,0.46,1.38,1.38v16.38c0,0.91-0.46,1.38-1.38,1.38h-52.05C511.28,667.86,510.87,667.4,510.87,666.49z"/>
					<path class="st1" d="M630.89,566.82c10.41,0,18.22,2.86,23.42,8.58c4.59,5.1,6.89,12.35,6.89,21.73v40.57
						c0,9.29-2.58,16.64-7.73,22.05c-5.15,5.42-12.68,8.12-22.58,8.12h-38.27c-0.82,0-1.23-0.46-1.23-1.38V568.2
						c0-0.91,0.41-1.38,1.23-1.38H630.89z M641.15,601.73c0-4.9-1.28-8.75-3.83-11.56c-2.55-2.8-6.53-4.21-11.94-4.21H611.6v62.76
						h13.77c4.59,0,8.37-1.38,11.33-4.13c2.96-2.76,4.44-6.58,4.44-11.48V601.73z"/>
					<path class="st1" d="M745.4,627.91c-2.25,4.6-5.41,7.86-9.49,9.8l12.86,28.32c0.2,0.51,0.2,0.95,0,1.3
						c-0.21,0.37-0.57,0.54-1.07,0.54h-18.83c-0.51,0-0.87-0.25-1.07-0.77l-11.94-26.03h-7.81v25.42c0,0.91-0.46,1.38-1.38,1.38
						h-17.61c-0.71,0-1.07-0.46-1.07-1.38V568.2c0-0.91,0.36-1.38,1.07-1.38h31.84c8.58,0,15.26,2.35,20.05,7.04
						s7.19,11.54,7.19,20.51v19.29c0,2.66-0.23,5.21-0.69,7.65C747.01,623.78,746.31,625.97,745.4,627.91z M728.1,598.97
						c0-2.65-0.28-4.76-0.84-6.35c-0.57-1.58-1.45-2.79-2.68-3.6c-1.23-0.81-2.83-1.32-4.82-1.52c-1.99-0.21-4.41-0.3-7.27-0.3
						h-4.44v33.83h4.44c2.45,0,4.61-0.08,6.5-0.23c1.89-0.16,3.5-0.62,4.82-1.38c1.32-0.76,2.34-1.96,3.07-3.6
						c0.71-1.63,1.11-3.93,1.22-6.89V598.97z"/>
					<path class="st1" d="M794.39,567.75c0.2-0.62,0.56-0.92,1.07-0.92h18.98c0.51,0,0.86,0.3,1.07,0.92l26.48,98.44
						c0.21,1.12-0.25,1.68-1.38,1.68h-17.45c-0.61,0-0.98-0.3-1.07-0.91l-5.97-21.44h-22.35l-5.82,21.44
						c-0.2,0.61-0.56,0.91-1.07,0.91h-17.61c-1.12,0-1.58-0.56-1.38-1.68L794.39,567.75z M811.37,626.37l-6.58-23.11l-6.12,23.11
						H811.37z"/>
					<path class="st1" d="M896.34,605.86c2.86,1.44,5.87,3.04,9.04,4.82c3.16,1.78,6.07,3.91,8.72,6.36
						c2.65,2.45,4.82,5.21,6.5,8.26c1.68,3.07,2.53,6.58,2.53,10.56c0,1.13-0.08,2.51-0.23,4.14c-0.16,1.64-0.44,3.4-0.84,5.29
						c-0.41,1.89-0.99,3.82-1.76,5.82c-0.77,1.99-1.76,3.9-2.99,5.74c-5.62,8.37-14.54,12.56-26.79,12.56
						c-3.27,0-6.58-0.41-9.95-1.23c-3.36-0.82-6.56-2.06-9.56-3.75c-3.01-1.68-5.69-3.8-8.05-6.35c-2.34-2.55-4.13-5.62-5.36-9.19
						c-0.2-0.51-0.05-0.92,0.46-1.23l14.08-12.09c0.82-0.61,1.48-0.51,1.99,0.3c0.2,0.41,0.44,0.9,0.69,1.45
						c0.25,0.57,0.58,1.25,0.99,2.07c1.12,2.35,2.96,4.51,5.51,6.5c2.55,1.99,5.36,2.99,8.42,2.99c1.23,0,2.47-0.17,3.75-0.54
						c1.27-0.36,2.47-0.91,3.6-1.68s2.05-1.79,2.76-3.07c0.71-1.27,1.07-2.83,1.07-4.67c0-1.73-0.54-3.32-1.61-4.75
						c-1.07-1.43-2.39-2.68-3.98-3.75c-1.58-1.07-3.27-1.99-5.05-2.75c-1.78-0.77-3.45-1.45-4.98-2.07
						c-3.47-1.43-6.91-3.03-10.33-4.82c-3.42-1.78-6.61-4.01-9.57-6.66c-6.23-5.82-9.34-12.45-9.34-19.9c0-4.8,1-8.98,2.99-12.55
						c1.99-3.58,4.61-6.56,7.89-8.96c3.27-2.39,6.94-4.21,11.01-5.43c4.08-1.23,8.22-1.84,12.41-1.84
						c13.17,0,22.96,6.84,29.39,20.51c0.3,0.71,0.16,1.28-0.45,1.68l-13.63,9.49c-0.51,0.3-1.03,0.16-1.53-0.45
						c-2.66-3.78-5.21-6.56-7.65-8.35c-2.45-1.78-5.21-2.67-8.27-2.67c-0.82,0-1.84,0.1-3.06,0.3c-1.23,0.2-2.4,0.56-3.53,1.07
						c-1.12,0.51-2.09,1.2-2.91,2.06c-0.82,0.87-1.22,2.02-1.22,3.45c0,1.73,0.69,3.27,2.06,4.59c1.38,1.33,3.07,2.53,5.05,3.6
						c1.99,1.08,4.06,2.02,6.2,2.84C892.97,604.39,894.81,605.15,896.34,605.86z"/>
				</g>
			</g>
		</g>
	</g>
	<path class="st1" d="M462.31,366.6V187.68c0-1.67,0.74-2.51,2.23-2.51h94.75c1.67,0,2.51,0.84,2.51,2.51v29.82
		c0,1.67-0.84,2.51-2.51,2.51h-60.2v37.9h46.82c1.48,0,2.23,0.84,2.23,2.51v30.37c0,1.67-0.75,2.51-2.23,2.51h-46.82v73.29
		c0,1.67-0.84,2.51-2.51,2.51h-32.05C463.05,369.1,462.31,368.27,462.31,366.6z M600.81,366.6V187.68c0-1.67,0.74-2.51,2.23-2.51
		h31.77c1.67,0,2.51,0.84,2.51,2.51v146.58h60.2c1.67,0,2.51,0.83,2.51,2.49v29.86c0,1.66-0.84,2.49-2.51,2.49h-94.47
		C601.55,369.1,600.81,368.27,600.81,366.6z M740.98,369.1h32.05c1.67,0,2.51-0.84,2.51-2.51v-46.26h23.41
		c15.79,0,28.01-4.55,36.65-13.66c8.64-9.1,12.96-21.18,12.96-36.23v-35.11c0-16.35-4.37-28.8-13.1-37.34
		c-8.74-8.54-20.9-12.82-36.51-12.82h-57.96c-1.3,0-1.95,0.84-1.95,2.51V366.6C739.03,368.27,739.68,369.1,740.98,369.1z
		 M775.54,222.52h8.08c4.83,0,9.06,0.19,12.68,0.56c3.62,0.37,6.59,1.3,8.92,2.79c2.32,1.49,4.04,3.62,5.16,6.41
		c1.11,2.79,1.67,6.6,1.67,11.43v18.39c0,4.83-0.74,8.64-2.23,11.43c-1.49,2.79-3.53,4.97-6.13,6.55c-2.6,1.58-5.62,2.6-9.06,3.07
		c-3.44,0.46-7.11,0.69-11.01,0.69h-8.08V222.52z M78,130.6v289.35h844V130.6H78z M203.45,245.24h-45.84
		c-2.43,0-4.41,1.98-4.41,4.41v80.6h50.25v24.77H153.2v40.34h-24.77V249.66c0-16.12,13.06-29.18,29.18-29.18h45.84V245.24z
		 M315.03,355.02h-86.81l-0.09-63.85h24.85v39.08h62.05V355.02z M365.19,395.27h-24.77v-79.07l-2.97,0.09
		c-12.16-0.09-34.94-3.42-48.72-27.02c-19.36-33.32-48.63-34.67-48.54-34.58l-12.07-0.36v-52.32l24.04-14.05l3.51-1.89l-2.88-2.79
		c-7.2-6.93-11.44-16.66-12.16-27.74h24.86c0.36,6.03,3.33,15.13,23.5,15.13l18.1,0.18l0.18-15.49l24.77,0.36l-0.36,28.1
		c0.27,6.75,2.88,20.17,10.54,27.56c14.86,14.41,22.96,35.21,22.96,58.54V395.27z M894.62,392.57H421.11V157.89h473.51V392.57z
		 M308.72,198.05l-0.54-2.34h-19.9l-35.3,20.53v15.58l2.16,0.63c15.94,4.5,38.45,15.76,55.11,44.22
		c6.93,12.16,17.92,14.86,26.21,14.86h1.08l2.88-0.09v-21.52c0-16.21-5.58-31.07-15.49-40.71
		C315.12,219.67,310.7,206.97,308.72,198.05z"/>
</g>
</svg>
