<?xml version="1.0" encoding="utf-8"?>
<!-- Generator: Adobe Illustrator 23.0.3, SVG Export Plug-In . SVG Version: 6.00 Build 0)  -->
<svg version="1.1" id="Layer_1" xmlns="http://www.w3.org/2000/svg" xmlns:xlink="http://www.w3.org/1999/xlink" x="0px" y="0px"
	 viewBox="0 0 1000 1000" style="enable-background:new 0 0 1000 1000;" xml:space="preserve">
<style type="text/css">
	.st0{fill:#645A55;}
	.st1{fill:#AF6E23;}
	.st2{fill:#F5F0E6;}
	.st3{fill:#FFFFFF;}
</style>
<g>
	<g>
		<g>
			<polygon class="st1" points="182.71,812.49 196.5,812.49 196.5,805.56 182.71,805.56 182.71,792 200.24,792 200.24,785.22 
				175.31,785.22 175.31,833.68 182.71,833.68 			"/>
			<path class="st1" d="M244.73,820.05h6.47l6.23,13.63h7.79l-6.78-14.57l1.4-0.7c1.92-0.88,3.3-2.35,4.13-4.4
				c0.83-2.05,1.25-4.19,1.25-6.43v-9.82c0-3.74-1.09-6.76-3.27-9.08c-2.18-2.31-5.25-3.47-9.19-3.47H237.4v48.46h7.32V820.05z
				 M244.73,792.63h6.16c4.67,0,7.01,2.49,7.01,7.48v5.07c0,1.14-0.13,2.29-0.39,3.43c-0.26,1.14-0.91,2.1-1.95,2.88
				c-0.73,0.57-1.55,0.93-2.45,1.09c-0.91,0.16-2.01,0.23-3.31,0.23h-5.06V792.63z"/>
			<rect x="305.18" y="785.22" class="st1" width="7.32" height="48.46"/>
			<path class="st1" d="M380.64,787.84c-1.38-1.17-3.08-2.01-5.1-2.53c-2.03-0.52-4.34-0.78-6.93-0.78c-2.44,0-4.66,0.23-6.66,0.7
				c-2,0.47-3.73,1.26-5.18,2.38c-1.45,1.12-2.58,2.62-3.39,4.52c-0.81,1.9-1.21,4.25-1.21,7.05v20.49c0,2.65,0.38,4.92,1.13,6.82
				c0.75,1.9,1.84,3.43,3.27,4.6c1.43,1.17,3.16,2.03,5.18,2.57c2.02,0.54,4.31,0.82,6.86,0.82c2.23,0,4.34-0.22,6.31-0.66
				c1.97-0.44,3.7-1.23,5.18-2.37c1.48-1.14,2.65-2.66,3.51-4.56c0.86-1.9,1.29-4.3,1.29-7.21v-11.45H368.6v6.78h8.88v2.18
				c0,2.96-0.69,5.32-2.06,7.09c-1.38,1.77-3.52,2.65-6.43,2.65h-0.93c-2.75,0-4.84-0.83-6.27-2.49c-1.43-1.66-2.14-4.08-2.14-7.25
				v-15.43c0-1.56,0.16-2.88,0.47-3.97c0.31-1.09,0.75-2.05,1.33-2.88c1.45-1.92,3.66-2.88,6.62-2.88h0.93
				c1.14,0,2.23,0.13,3.27,0.39c1.04,0.26,1.95,0.7,2.73,1.32c0.78,0.62,1.39,1.43,1.83,2.42c0.44,0.99,0.66,2.21,0.66,3.66v0.23
				h7.4v-0.86c0-2.7-0.36-4.97-1.09-6.82C383.06,790.51,382.01,789,380.64,787.84z"/>
			<path class="st1" d="M439.89,784.52c-2.65,0-5,0.23-7.05,0.7c-2.05,0.47-3.77,1.27-5.14,2.42c-1.38,1.14-2.43,2.65-3.16,4.52
				c-0.73,1.87-1.09,4.21-1.09,7.01v20.49c0,2.7,0.36,4.99,1.09,6.86c0.73,1.87,1.78,3.39,3.16,4.56c1.38,1.17,3.09,2.03,5.14,2.57
				c2.05,0.54,4.4,0.82,7.05,0.82c2.6,0,4.91-0.25,6.93-0.74c2.03-0.49,3.73-1.32,5.1-2.49c1.38-1.17,2.43-2.7,3.16-4.6
				c0.73-1.9,1.09-4.22,1.09-6.97v-20.49c0-5.35-1.39-9.13-4.17-11.34C449.22,785.63,445.18,784.52,439.89,784.52z M448.77,817.17
				c0,1.45-0.13,2.78-0.39,3.97c-0.26,1.19-0.73,2.22-1.4,3.08c-0.68,0.86-1.56,1.52-2.65,1.99c-1.09,0.47-2.44,0.7-4.05,0.7h-0.93
				c-2.91,0-5.04-0.83-6.39-2.49c-1.35-1.66-2.03-4.08-2.03-7.25v-15.43c0-2.96,0.64-5.32,1.91-7.09c1.27-1.76,3.44-2.65,6.51-2.65
				h0.93c2.75,0,4.86,0.81,6.31,2.42c1.45,1.61,2.18,4.05,2.18,7.32V817.17z"/>
			<path class="st1" d="M523.87,833.68l-6.78-14.57l1.4-0.7c1.92-0.88,3.3-2.35,4.13-4.4c0.83-2.05,1.25-4.19,1.25-6.43v-9.82
				c0-3.74-1.09-6.76-3.27-9.08c-2.18-2.31-5.25-3.47-9.19-3.47h-15.35v48.46h7.32v-13.63h6.47l6.23,13.63H523.87z M511.76,812.57
				c-0.91,0.16-2.01,0.23-3.31,0.23h-5.06v-20.18h6.16c4.67,0,7.01,2.49,7.01,7.48v5.07c0,1.14-0.13,2.29-0.39,3.43
				c-0.26,1.14-0.91,2.1-1.95,2.88C513.48,812.05,512.66,812.42,511.76,812.57z"/>
			<path class="st1" d="M569.56,773.15c0.44-0.62,1.28-1.82,2.53-3.58h-4.05l-0.93,4.67h1.64
				C568.85,774.14,569.12,773.77,569.56,773.15z"/>
			<rect x="563.84" y="785.22" class="st1" width="7.32" height="48.46"/>
			<polygon class="st1" points="611.75,833.68 619.15,833.68 619.15,812.49 632.94,812.49 632.94,805.56 619.15,805.56 619.15,792 
				636.68,792 636.68,785.22 611.75,785.22 			"/>
			<rect x="673.84" y="785.22" class="st1" width="7.32" height="48.46"/>
			<path class="st1" d="M737.26,834.46c2.54,0,4.82-0.25,6.82-0.74c2-0.49,3.7-1.32,5.1-2.49c1.4-1.17,2.48-2.7,3.23-4.6
				c0.75-1.9,1.13-4.22,1.13-6.97v-4.13h-7.32v1.64c0,1.35-0.14,2.6-0.43,3.74c-0.29,1.14-0.77,2.16-1.44,3.04
				c-0.78,0.99-1.75,1.73-2.92,2.22c-1.17,0.49-2.43,0.74-3.78,0.74h-0.93c-2.23,0-4.13-0.65-5.69-1.95
				c-1.82-1.72-2.73-4.31-2.73-7.79v-15.43c0-1.56,0.16-2.88,0.47-3.97c0.31-1.09,0.75-2.05,1.33-2.88
				c1.45-1.92,3.66-2.88,6.62-2.88h0.93c1.09,0,2.14,0.13,3.16,0.39c1.01,0.26,1.92,0.69,2.73,1.29c0.8,0.6,1.44,1.38,1.91,2.34
				c0.47,0.96,0.7,2.14,0.7,3.54v0.47h7.4v-0.86c0-5.25-1.35-9-4.05-11.26c-2.7-2.26-6.78-3.39-12.23-3.39
				c-2.6,0-4.91,0.25-6.93,0.74c-2.03,0.49-3.74,1.32-5.14,2.49c-1.4,1.17-2.48,2.69-3.23,4.56c-0.75,1.87-1.13,4.16-1.13,6.86
				v20.49c0,5.35,1.4,9.15,4.21,11.41C727.83,833.33,731.91,834.46,737.26,834.46z"/>
			<path class="st1" d="M796.28,831.07c1.38,1.17,3.09,2.03,5.14,2.57c2.05,0.54,4.4,0.82,7.05,0.82c2.6,0,4.91-0.25,6.93-0.74
				c2.03-0.49,3.73-1.32,5.1-2.49c1.38-1.17,2.43-2.7,3.16-4.6c0.73-1.9,1.09-4.22,1.09-6.97v-20.49c0-5.35-1.39-9.13-4.17-11.34
				c-2.78-2.21-6.82-3.31-12.11-3.31c-2.65,0-5,0.23-7.05,0.7c-2.05,0.47-3.77,1.27-5.14,2.42c-1.38,1.14-2.43,2.65-3.16,4.52
				c-0.73,1.87-1.09,4.21-1.09,7.01v20.49c0,2.7,0.36,4.99,1.09,6.86C793.85,828.39,794.9,829.9,796.28,831.07z M799.51,801.74
				c0-2.96,0.64-5.32,1.91-7.09c1.27-1.76,3.44-2.65,6.51-2.65h0.93c2.75,0,4.86,0.81,6.31,2.42c1.45,1.61,2.18,4.05,2.18,7.32
				v15.43c0,1.45-0.13,2.78-0.39,3.97c-0.26,1.19-0.73,2.22-1.4,3.08c-0.68,0.86-1.56,1.52-2.65,1.99c-1.09,0.47-2.44,0.7-4.05,0.7
				h-0.93c-2.91,0-5.04-0.83-6.39-2.49c-1.35-1.66-2.03-4.08-2.03-7.25V801.74z"/>
		</g>
		<g>
			<g>
				<path class="st1" d="M190.64,863.79v61.8h25.37c0.71,0,1.06,0.35,1.06,1.05v12.59c0,0.7-0.35,1.05-1.06,1.05h-39.83
					c-0.63,0-0.94-0.35-0.94-1.06v-75.44c0-0.7,0.31-1.06,0.94-1.06h13.39C190.29,862.73,190.64,863.08,190.64,863.79z"/>
				<path class="st1" d="M248.21,863.44c0.15-0.47,0.43-0.71,0.82-0.71h14.57c0.39,0,0.67,0.23,0.82,0.71l20.33,75.55
					c0.15,0.86-0.19,1.29-1.06,1.29h-13.4c-0.47,0-0.74-0.23-0.82-0.7l-4.58-16.45h-17.15l-4.46,16.45c-0.16,0.47-0.43,0.7-0.82,0.7
					h-13.51c-0.86,0-1.22-0.43-1.06-1.29L248.21,863.44z M261.26,908.43l-5.05-17.74l-4.7,17.74H261.26z"/>
				<path class="st1" d="M326.47,892.69c2.19,1.1,4.5,2.33,6.93,3.7c2.43,1.37,4.66,3,6.7,4.88c2.04,1.88,3.7,4,4.99,6.34
					c1.3,2.35,1.94,5.05,1.94,8.11c0,0.87-0.06,1.92-0.18,3.17c-0.11,1.26-0.33,2.61-0.65,4.06c-0.31,1.45-0.76,2.93-1.35,4.46
					c-0.59,1.52-1.35,2.99-2.29,4.4c-4.3,6.42-11.16,9.64-20.56,9.64c-2.51,0-5.05-0.31-7.64-0.94c-2.59-0.63-5.03-1.58-7.34-2.88
					c-2.31-1.29-4.37-2.91-6.17-4.87c-1.8-1.96-3.17-4.31-4.11-7.05c-0.16-0.39-0.04-0.71,0.35-0.94l10.81-9.28
					c0.63-0.47,1.14-0.39,1.52,0.23c0.16,0.31,0.33,0.69,0.53,1.12c0.19,0.43,0.45,0.96,0.76,1.59c0.86,1.8,2.27,3.46,4.23,4.99
					s4.11,2.29,6.46,2.29c0.94,0,1.9-0.13,2.88-0.41c0.98-0.27,1.9-0.7,2.76-1.29c0.86-0.59,1.56-1.37,2.11-2.35
					c0.55-0.98,0.82-2.17,0.82-3.58c0-1.33-0.41-2.55-1.23-3.64c-0.82-1.1-1.84-2.06-3.06-2.88c-1.21-0.82-2.51-1.52-3.88-2.11
					c-1.37-0.59-2.64-1.12-3.82-1.59c-2.67-1.1-5.31-2.33-7.93-3.7c-2.63-1.37-5.07-3.07-7.34-5.11c-4.78-4.46-7.16-9.56-7.16-15.28
					c0-3.68,0.76-6.89,2.29-9.63c1.52-2.75,3.54-5.03,6.05-6.88c2.51-1.84,5.33-3.23,8.46-4.17s6.3-1.41,9.52-1.41
					c10.1,0,17.62,5.25,22.56,15.74c0.23,0.55,0.11,0.98-0.35,1.29l-10.46,7.28c-0.39,0.23-0.78,0.12-1.18-0.35
					c-2.03-2.9-3.99-5.03-5.87-6.41c-1.88-1.37-3.99-2.05-6.34-2.05c-0.63,0-1.41,0.08-2.35,0.23c-0.94,0.15-1.84,0.43-2.7,0.82
					s-1.6,0.92-2.23,1.58c-0.63,0.67-0.94,1.55-0.94,2.65c0,1.33,0.53,2.51,1.59,3.52c1.06,1.02,2.35,1.94,3.88,2.76
					c1.52,0.83,3.11,1.55,4.76,2.18S325.29,892.14,326.47,892.69z"/>
				<path class="st1" d="M433.85,862.73c6.58,0,11.71,1.8,15.39,5.41s5.52,8.85,5.52,15.74v14.8c0,6.35-1.82,11.44-5.46,15.28
					c-3.64,3.84-8.79,5.75-15.45,5.75h-9.87v19.51c0,0.7-0.35,1.06-1.06,1.06h-13.51c-0.55,0-0.82-0.35-0.82-1.06v-75.44
					c0-0.7,0.27-1.06,0.82-1.06H433.85z M439.37,887.4c0-2.03-0.23-3.64-0.7-4.82c-0.47-1.17-1.2-2.07-2.17-2.7
					c-0.98-0.63-2.24-1.02-3.76-1.18c-1.53-0.15-3.31-0.23-5.35-0.23h-3.41v25.85h3.41c1.64,0,3.19-0.1,4.64-0.29
					c1.45-0.19,2.73-0.63,3.82-1.29c1.1-0.67,1.96-1.59,2.59-2.76c0.62-1.18,0.94-2.78,0.94-4.82V887.4z"/>
				<path class="st1" d="M471.33,939.22v-75.44c0-0.7,0.31-1.06,0.94-1.06h13.39c0.71,0,1.06,0.35,1.06,1.06v75.44
					c0,0.7-0.35,1.06-1.06,1.06h-13.39C471.64,940.27,471.33,939.92,471.33,939.22z"/>
				<path class="st1" d="M508.34,939.22v-75.44c0-0.7,0.31-1.06,0.94-1.06h39.95c0.7,0,1.06,0.35,1.06,1.06v12.58
					c0,0.7-0.35,1.06-1.06,1.06h-25.38v15.98h19.74c0.63,0,0.94,0.35,0.94,1.06v12.81c0,0.7-0.31,1.06-0.94,1.06h-19.74v17.27h25.38
					c0.7,0,1.06,0.35,1.06,1.06v12.57c0,0.7-0.35,1.06-1.06,1.06h-39.95C508.65,940.27,508.34,939.92,508.34,939.22z"/>
				<path class="st1" d="M600.46,862.73c7.99,0,13.98,2.19,17.98,6.58c3.52,3.92,5.29,9.48,5.29,16.68v31.14
					c0,7.13-1.98,12.77-5.93,16.92c-3.96,4.16-9.73,6.23-17.33,6.23h-29.37c-0.63,0-0.94-0.35-0.94-1.06v-75.44
					c0-0.7,0.31-1.06,0.94-1.06H600.46z M608.33,889.52c0-3.76-0.98-6.72-2.94-8.87c-1.96-2.15-5.01-3.23-9.16-3.23h-10.57v48.17
					h10.57c3.52,0,6.42-1.06,8.69-3.17c2.27-2.12,3.41-5.05,3.41-8.81V889.52z"/>
				<path class="st1" d="M688.34,909.61c-1.72,3.53-4.15,6.03-7.28,7.52l9.87,21.74c0.15,0.39,0.15,0.73,0,1
					c-0.16,0.28-0.43,0.41-0.82,0.41h-14.46c-0.39,0-0.67-0.19-0.82-0.59l-9.16-19.97h-5.99v19.51c0,0.7-0.35,1.06-1.06,1.06H645.1
					c-0.55,0-0.82-0.35-0.82-1.06v-75.44c0-0.7,0.27-1.06,0.82-1.06h24.44c6.58,0,11.71,1.8,15.39,5.41s5.52,8.85,5.52,15.74v14.8
					c0,2.04-0.17,4-0.53,5.87C689.58,906.44,689.04,908.12,688.34,909.61z M675.06,887.4c0-2.03-0.21-3.66-0.64-4.87
					c-0.43-1.22-1.12-2.14-2.06-2.77c-0.94-0.62-2.17-1.02-3.7-1.17c-1.52-0.16-3.39-0.23-5.58-0.23h-3.41v25.96h3.41
					c1.88,0,3.54-0.06,4.99-0.17c1.45-0.12,2.69-0.47,3.7-1.06c1.02-0.58,1.8-1.5,2.35-2.76c0.55-1.25,0.86-3.01,0.94-5.29V887.4z"
					/>
				<path class="st1" d="M725.94,863.44c0.15-0.47,0.43-0.71,0.82-0.71h14.57c0.39,0,0.66,0.23,0.82,0.71l20.32,75.55
					c0.16,0.86-0.19,1.29-1.06,1.29h-13.39c-0.47,0-0.75-0.23-0.82-0.7l-4.58-16.45h-17.15L721,939.57c-0.15,0.47-0.43,0.7-0.82,0.7
					h-13.51c-0.86,0-1.22-0.43-1.06-1.29L725.94,863.44z M738.98,908.43l-5.05-17.74l-4.7,17.74H738.98z"/>
				<path class="st1" d="M804.19,892.69c2.19,1.1,4.5,2.33,6.94,3.7c2.43,1.37,4.66,3,6.7,4.88c2.03,1.88,3.7,4,4.99,6.34
					c1.29,2.35,1.94,5.05,1.94,8.11c0,0.87-0.06,1.92-0.17,3.17c-0.12,1.26-0.33,2.61-0.65,4.06c-0.31,1.45-0.76,2.93-1.35,4.46
					c-0.59,1.52-1.35,2.99-2.29,4.4c-4.31,6.42-11.16,9.64-20.56,9.64c-2.51,0-5.05-0.31-7.64-0.94c-2.58-0.63-5.03-1.58-7.34-2.88
					c-2.31-1.29-4.37-2.91-6.17-4.87c-1.8-1.96-3.17-4.31-4.11-7.05c-0.15-0.39-0.04-0.71,0.35-0.94l10.81-9.28
					c0.63-0.47,1.14-0.39,1.53,0.23c0.15,0.31,0.33,0.69,0.53,1.12c0.19,0.43,0.45,0.96,0.76,1.59c0.86,1.8,2.27,3.46,4.23,4.99
					s4.12,2.29,6.46,2.29c0.94,0,1.9-0.13,2.88-0.41c0.98-0.27,1.9-0.7,2.76-1.29c0.86-0.59,1.57-1.37,2.12-2.35
					c0.55-0.98,0.82-2.17,0.82-3.58c0-1.33-0.41-2.55-1.24-3.64c-0.82-1.1-1.84-2.06-3.05-2.88c-1.22-0.82-2.51-1.52-3.88-2.11
					c-1.37-0.59-2.65-1.12-3.82-1.59c-2.66-1.1-5.31-2.33-7.93-3.7c-2.63-1.37-5.07-3.07-7.34-5.11c-4.78-4.46-7.17-9.56-7.17-15.28
					c0-3.68,0.77-6.89,2.29-9.63c1.53-2.75,3.54-5.03,6.05-6.88c2.51-1.84,5.33-3.23,8.45-4.17c3.13-0.94,6.31-1.41,9.52-1.41
					c10.1,0,17.62,5.25,22.55,15.74c0.23,0.55,0.12,0.98-0.35,1.29l-10.46,7.28c-0.39,0.23-0.79,0.12-1.18-0.35
					c-2.04-2.9-4-5.03-5.87-6.41c-1.88-1.37-4-2.05-6.35-2.05c-0.63,0-1.41,0.08-2.35,0.23c-0.94,0.15-1.84,0.43-2.71,0.82
					s-1.6,0.92-2.23,1.58c-0.63,0.67-0.94,1.55-0.94,2.65c0,1.33,0.53,2.51,1.58,3.52c1.06,1.02,2.35,1.94,3.88,2.76
					c1.53,0.83,3.11,1.55,4.76,2.18S803.01,892.14,804.19,892.69z"/>
			</g>
		</g>
	</g>
	<g>
		<g>
			<g>
				<g>
					<path class="st1" d="M761.58,212.12c-20.9-20.34-28-57.13-28.89-75.69l1.13-76.9l-68.03-0.97l-0.57,42.29l-49.55-0.32
						c-55.36,0-63.35-25.1-64.56-41.48h-67.95c1.78,30.26,13.4,57.05,33.25,76.02l7.91,7.59l-9.52,5.33l-66.01,38.41v143.56
						l33.01,0.89c-0.16-0.16,80.13,3.55,133.15,94.82c37.77,64.64,100.23,73.92,133.55,74l8.15-0.08V716.4h67.95V372.62
						C824.61,308.63,802.25,251.66,761.58,212.12z M756.66,431.61l-7.91,0.24h-2.83c-22.84,0-52.94-7.34-72.06-40.67
						c-45.51-78.03-107.33-109.1-151.15-121.37l-5.89-1.69v-42.77l96.84-56.25h54.63l1.37,6.29c5.49,24.61,17.67,59.39,44.63,85.62
						c26.95,26.31,42.37,66.98,42.37,111.6V431.61z"/>
				</g>
				<g>
					<path class="st1" d="M243.34,317.1v220.95h137.67V606H243.34v110.47h-67.95V317.1c0-44.22,35.91-80.21,80.13-80.21h125.57
						v68.03H255.53C248.83,304.92,243.34,310.41,243.34,317.1z"/>
				</g>
				<g>
					<polygon class="st1" points="686.94,538.05 686.94,606 449.04,606 448.8,430.89 516.83,430.89 516.83,538.05 					"/>
				</g>
			</g>
		</g>
	</g>
</g>
</svg>
