<?xml version="1.0" encoding="utf-8"?>
<!-- Generator: Adobe Illustrator 23.0.3, SVG Export Plug-In . SVG Version: 6.00 Build 0)  -->
<svg version="1.1" id="Layer_1" xmlns="http://www.w3.org/2000/svg" xmlns:xlink="http://www.w3.org/1999/xlink" x="0px" y="0px"
	 viewBox="0 0 1000 500" style="enable-background:new 0 0 1000 500;" xml:space="preserve">
<style type="text/css">
	.st0{fill:#645A55;}
	.st1{fill:#AF6E23;}
	.st2{fill:#F5F0E6;}
	.st3{fill:#FFFFFF;}
</style>
<path class="st2" d="M461.67,342.87V160.92c0-1.7,0.75-2.55,2.27-2.55h96.36c1.7,0,2.55,0.85,2.55,2.55v30.32
	c0,1.7-0.85,2.55-2.55,2.55h-61.22v38.54h47.61c1.51,0,2.27,0.85,2.27,2.55v30.89c0,1.7-0.76,2.55-2.27,2.55h-47.61v74.54
	c0,1.7-0.85,2.55-2.55,2.55h-32.59C462.42,345.42,461.67,344.57,461.67,342.87z M602.52,342.87V160.92c0-1.7,0.75-2.55,2.27-2.55
	h32.31c1.7,0,2.55,0.85,2.55,2.56v149.07h61.22c1.7,0,2.55,0.85,2.55,2.53v30.37c0,1.69-0.85,2.53-2.55,2.53h-96.08
	C603.27,345.42,602.52,344.57,602.52,342.87z M745.08,345.42h32.59c1.7,0,2.55-0.85,2.55-2.55v-47.05h23.8
	c16.06,0,28.48-4.63,37.27-13.89c8.78-9.25,13.18-21.54,13.18-36.84v-35.71c0-16.62-4.44-29.29-13.32-37.98
	c-8.88-8.69-21.26-13.04-37.13-13.04h-58.95c-1.33,0-1.99,0.85-1.99,2.55v181.95C743.09,344.57,743.75,345.42,745.08,345.42z
	 M780.22,196.35h8.22c4.91,0,9.21,0.19,12.89,0.57c3.69,0.38,6.71,1.32,9.07,2.84c2.36,1.51,4.11,3.68,5.24,6.52
	c1.13,2.84,1.7,6.71,1.7,11.62v18.7c0,4.92-0.76,8.79-2.27,11.62c-1.51,2.83-3.59,5.06-6.23,6.66c-2.65,1.61-5.72,2.65-9.21,3.12
	c-3.5,0.47-7.23,0.71-11.19,0.71h-8.22V196.35z M70.83,102.87v294.26h858.33V102.87H70.83z M198.41,219.46H151.8
	c-2.47,0-4.49,2.01-4.49,4.49v81.97h51.1v25.19h-51.1v41.03h-25.19V223.94c0-16.39,13.28-29.67,29.67-29.67h46.62V219.46z
	 M311.89,331.1H223.6l-0.09-64.93h25.28v39.75h63.1V331.1z M362.9,372.04h-25.19v-80.41l-3.02,0.09
	c-12.36-0.09-35.53-3.48-49.55-27.48c-19.69-33.89-49.46-35.26-49.36-35.17l-12.27-0.37V175.5l24.45-14.29l3.57-1.92l-2.93-2.84
	c-7.33-7.05-11.63-16.94-12.36-28.21h25.28c0.37,6.14,3.39,15.39,23.9,15.39l18.41,0.18l0.18-15.75l25.19,0.37L328.83,157
	c0.27,6.87,2.93,20.51,10.72,28.03c15.11,14.65,23.35,35.81,23.35,59.53V372.04z M901.32,369.29H419.77V130.62h481.55V369.29z
	 M305.47,171.47l-0.55-2.38h-20.24l-35.9,20.88v15.84l2.2,0.64c16.21,4.58,39.11,16.03,56.05,44.97
	c7.05,12.36,18.23,15.11,26.65,15.11h1.1l2.93-0.09v-21.89c0-16.49-5.68-31.6-15.75-41.4C311.98,193.45,307.49,180.53,305.47,171.47
	z"/>
</svg>
